<?xml version="1.0" encoding="UTF-8"?>
<svg width="227px" height="119px" viewBox="0 0 227 119" version="1.1" xmlns="http://www.w3.org/2000/svg" xmlns:xlink="http://www.w3.org/1999/xlink">
    <!-- Generator: Sketch 50.2 (55047) - http://www.bohemiancoding.com/sketch -->
    <title>Group 18</title>
    <desc>Created with Sketch.</desc>
    <defs></defs>
    <g id="Landing-Page" stroke="none" stroke-width="1" fill="none" fill-rule="evenodd">
        <g id="PLan-Journey-Copy" transform="translate(-69.000000, -1899.000000)">
            <g id="Group-31" transform="translate(-4.000000, 1542.000000)">
                <g id="Group-22" transform="translate(35.000000, 278.000000)">
                    <g id="Group-18" transform="translate(38.000000, 65.000000)">
                        <g id="Group-8" transform="translate(196.000000, 74.000000)">
                            <ellipse id="Oval-5" fill="#BAC1E1" cx="15.5" cy="43.5" rx="15.5" ry="2.5"></ellipse>
                            <path d="M15.4782609,35.6316236 C25.1304348,26.8601302 29.9565217,19.8090093 29.9565217,14.4782609 C29.9565217,6.48213819 23.4743836,0 15.4782609,0 C7.48213819,0 1,6.48213819 1,14.4782609 C1,19.8090093 5.82608696,26.8601302 15.4782609,35.6316236 Z" id="Oval-3-Copy" fill="#B4C3FF"></path>
                            <circle id="Oval-4-Copy" fill="#FFFFFF" cx="15.4782609" cy="14.4782609" r="5.86956522"></circle>
                        </g>
                        <g id="Group-9" transform="translate(0.000000, 74.000000)">
                            <ellipse id="Oval-5-Copy" fill="#BAC1E1" cx="15.5" cy="43.5" rx="15.5" ry="2.5"></ellipse>
                            <path d="M15.4782609,35.6316236 C25.1304348,26.8601302 29.9565217,19.8090093 29.9565217,14.4782609 C29.9565217,6.48213819 23.4743836,0 15.4782609,0 C7.48213819,0 1,6.48213819 1,14.4782609 C1,19.8090093 5.82608696,26.8601302 15.4782609,35.6316236 Z" id="Oval-3-Copy" fill="#B4C3FF"></path>
                            <circle id="Oval-4-Copy" fill="#FFFFFF" cx="15.4782609" cy="14.4782609" r="5.86956522"></circle>
                        </g>
                        <path d="M34,75 C75.2898127,41.6666667 150.003831,41.6666667 188,75" id="Path-2" stroke="#EAEEFF" stroke-width="3" stroke-linecap="round"></path>
                        <path id="Path-2-decoration-1" d="M188,75 L181.859784,65.6224873 L177.902931,70.1328442 L188,75 Z" stroke="#EAEEFF" stroke-width="3" stroke-linecap="round"></path>
                        <g id="icon/weather/rain" transform="translate(72.000000, 0.000000)">
                            <path d="M30.4484682,61.4167598 C31.0792611,63.7709109 29.7051086,65.5629037 27.9750086,66.0264826 C26.2449087,66.4900615 24.0800123,65.3309577 23.5280685,63.2710754 C22.9761247,61.2111931 25.0922357,56.2632238 25.0922357,56.2632238 C25.1813481,56.0460535 25.4062686,55.9793061 25.5996256,56.1211228 C25.5996256,56.1211228 29.8176752,59.0626087 30.4484682,61.4167598 Z M46.3004452,69.6847793 C47.2306252,73.1562579 45.2042721,75.7987666 42.6530319,76.4823694 C40.1017917,77.1659722 36.9093918,75.4567344 36.0954843,72.4191905 C35.2815769,69.3816465 38.4798945,61.8924215 38.4798945,61.8924215 C38.5683018,61.6786857 38.7938617,61.6151124 38.9853563,61.7542271 C38.9853563,61.7542271 45.3702651,66.2133007 46.3004452,69.6847793 Z M59.8820755,63.11411 C60.693236,66.1414018 58.9261613,68.445793 56.7013604,69.0419267 C54.4765596,69.6380603 51.6926375,68.1475249 50.9828721,65.4986445 C50.2731067,62.849764 53.038076,56.3782786 53.038076,56.3782786 C53.1284887,56.159047 53.3595233,56.0939561 53.5540002,56.2357483 C53.5540002,56.2357483 59.070915,60.0868182 59.8820755,63.11411 Z" id="Drops_2" fill="#3490DC"></path>
                            <path d="M16.1190129,52.0507549 C10.4786594,52.0507549 5.90625,47.5056011 5.90625,41.898869 C5.90625,36.2921369 10.4786594,31.7469831 16.1190129,31.7469831 C16.2846194,31.7469831 16.4493052,31.7509013 16.6129817,31.7586496 C17.8113723,28.372871 21.0569671,25.9459054 24.8728096,25.9459054 C29.1867798,25.9459054 32.7719021,29.0478713 33.4940123,33.1303604 C33.581033,32.6825497 33.6266064,32.2200568 33.6266064,31.7469831 C33.6266064,28.429912 31.3860128,25.6330404 28.3271961,24.7702605 C31.4398679,18.5881865 37.8704584,14.34375 45.2983354,14.34375 C54.7818193,14.34375 62.6396557,21.2624811 64.0421919,30.2990796 C58.5046741,30.4168427 54.0521322,34.9158469 54.0521322,40.4485996 C54.8634902,35.5288589 59.1198917,31.7469831 64.2648951,31.7469831 C69.9052485,31.7469831 74.477658,36.2921369 74.477658,41.898869 C74.477658,47.5056011 69.9052485,52.0507549 64.2648951,52.0507549 L16.1190129,52.0507549 Z" id="Cloud" fill="#7A83A4"></path>
                        </g>
                        <g id="icon/character/jog-copy" transform="translate(80.000000, 76.000000)" fill="#BAC1E1">
                            <path d="M30.5521557,30.7596196 L30.5521557,30.7596196 C31.8053178,30.7596196 32.8212064,31.7755082 32.8212064,33.0286703 L32.8212064,44.3429016 C32.8212064,46.0413152 31.4443702,47.4181514 29.7459566,47.4181514 C29.5882657,47.4181514 29.4308084,47.4060225 29.2749778,47.3818719 L29.2749778,47.3818719 C27.3239774,47.0795063 25.9874948,45.2527923 26.2898604,43.3017919 C26.2905631,43.2972574 26.2912746,43.2927241 26.2919948,43.2881923 L27.9269643,33.0005469 C28.1321034,31.7097593 29.2451688,30.7596196 30.5521557,30.7596196 Z" id="Rectangle-Copy-9" transform="translate(29.531649, 39.089053) rotate(218.000000) translate(-29.531649, -39.089053) "></path>
                            <rect id="Rectangle-Copy-4" transform="translate(27.109306, 24.198358) rotate(55.000000) translate(-27.109306, -24.198358) " x="24.8114334" y="18.2008833" width="4.59574468" height="11.9949495" rx="2.29787234"></rect>
                            <rect id="Rectangle-Copy-5" transform="translate(34.294219, 21.683841) rotate(85.000000) translate(-34.294219, -21.683841) " x="31.9963471" y="15.1181842" width="4.59574468" height="13.1313131" rx="2.29787234"></rect>
                            <rect id="Rectangle-Copy" transform="translate(19.372262, 44.846396) rotate(76.000000) translate(-19.372262, -44.846396) " x="17.0743895" y="37.3337701" width="4.59574468" height="15.0252525" rx="2.29787234"></rect>
                            <path d="M40.5429955,30.865924 L36.6787399,37.1211507 L41.6831889,41.3248851 C42.2194114,41.7753117 42.5375545,42.3987982 42.6138215,43.0529097 C42.79185,43.3262234 42.9142219,43.6419568 42.9626168,43.9863045 L44.4141237,54.3143131 C44.5907455,55.5710423 43.7151454,56.7330029 42.4584161,56.9096247 C41.2016869,57.0862465 40.0397263,56.2106464 39.8631045,54.9539171 L38.4795985,45.10976 L29.4401723,39.6783248 C27.9843477,38.8035772 27.5132918,36.9142751 28.3880394,35.4584505 C28.4692563,35.323283 28.5607493,35.1945626 28.6617091,35.0734282 C28.845132,34.8533522 29.0494041,34.6608999 29.2692463,34.4965509 C29.3276116,34.2830422 29.4048971,34.0717444 29.501815,33.8648102 L34.9537631,22.224087 C36.1083344,19.7589048 39.0427244,18.6964448 41.5079066,19.8510161 C41.5182426,19.855857 41.5285617,19.8607338 41.5388638,19.8656463 C42.6370526,20.3893173 43.4223144,21.3044159 43.8072611,22.364246 C44.1350999,22.7162471 44.355573,23.1737333 44.409726,23.6889642 L45.1684238,30.9074914 L50.5231389,30.4390146 C51.7873895,30.328407 52.9019323,31.2636194 53.0125399,32.52787 C53.1231475,33.7921207 52.187935,34.9066635 50.9236844,35.017271 L43.5526358,35.6621542 C42.6934432,35.7373239 41.9033953,35.3294661 41.4506223,34.663569 C41.094819,34.3050759 40.854262,33.8274264 40.7973573,33.2860147 L40.5429955,30.865924 Z M44.3877325,19.1403765 C41.555936,18.2746094 39.9544741,15.3022623 40.8107673,12.5014534 C41.6670605,9.70064448 44.656848,8.13198317 47.4886445,8.99775026 C50.3204411,9.86351735 51.921903,12.8358645 51.0656098,15.6366734 C50.2093166,18.4374822 47.2195291,20.0061436 44.3877325,19.1403765 Z" id="Combined-Shape"></path>
                        </g>
                    </g>
                </g>
            </g>
        </g>
    </g>
</svg>