<?xml version="1.0" encoding="UTF-8"?>
<svg width="141px" height="129px" viewBox="0 0 141 129" version="1.1" xmlns="http://www.w3.org/2000/svg" xmlns:xlink="http://www.w3.org/1999/xlink">
    <!-- Generator: Sketch 50.2 (55047) - http://www.bohemiancoding.com/sketch -->
    <title>Group 5</title>
    <desc>Created with Sketch.</desc>
    <defs></defs>
    <g id="Landing-Page" stroke="none" stroke-width="1" fill="none" fill-rule="evenodd">
        <g id="PLan-Journey-Copy" transform="translate(-775.000000, -1902.000000)">
            <g id="Group-31" transform="translate(-3.000000, 1542.000000)">
                <g id="Group-24" transform="translate(695.000000, 278.000000)">
                    <g id="Group-5" transform="translate(83.000000, 81.000000)">
                        <path d="M2.73927985,43.9084178 C1.84462445,44.4610271 1.3,45.4375724 1.3,46.4891357 L1.3,125.53908 C1.3,127.214343 2.65806959,128.572413 4.33333333,128.572413 L135.801636,128.572413 C137.4769,128.572413 138.834969,127.214343 138.834969,125.53908 L138.834969,46.4891357 C138.834969,45.4375724 138.290345,44.4610271 137.395689,43.9084178 L71.6615381,3.30585722 C70.6845129,2.70236991 69.4504564,2.70236991 68.4734312,3.30585722 L2.73927985,43.9084178 Z" id="Rectangle-7" stroke="#BAC1E1" stroke-width="2.6" fill="#FFFFFF"></path>
                        <rect id="Rectangle-9" stroke="#B4C3FF" stroke-width="2.6" fill="#FFFFFF" x="6.49018405" y="22.8932463" width="127.154601" height="101.4" rx="1.73333333"></rect>
                        <g id="icon/weather/partly-cloudy-day" transform="translate(30.000000, 31.000000)">
                            <g id="Group" stroke-width="1" transform="translate(5.906250, 12.656250)">
                                <path d="M27.1666702,42.0224101 C35.1805543,42.0224101 41.6770903,35.4485716 41.6770903,27.33933 C41.6770903,19.2300885 35.1805543,12.65625 27.1666702,12.65625 C19.152786,12.65625 12.65625,19.2300885 12.65625,27.33933 C12.65625,35.4485716 19.152786,42.0224101 27.1666702,42.0224101 Z" id="Oval-16-Copy" stroke="#F8CE1C" stroke-width="4" fill="#F8CE1C"></path>
                                <path d="M27.1899789,0 L28.0945975,0 C28.6398796,0 29.0933302,0.443288579 29.0933302,0.990112753 L29.0933302,6.35142727 C29.0933302,6.89334525 28.6461824,7.34154002 28.0945975,7.34154002 L27.1899789,7.34154002 C26.6446968,7.34154002 26.1912462,6.89825144 26.1912462,6.35142727 L26.1912462,0.990112753 C26.1912462,0.448194767 26.638394,0 27.1899789,0 Z M41.0717209,3.51542435 L41.8551437,3.96773367 C42.3273718,4.24037471 42.4984273,4.85099919 42.2250152,5.32456282 L39.5443579,9.96759738 C39.2733989,10.4369121 38.6620601,10.6014863 38.1843737,10.3256938 L37.4009509,9.87338451 C36.9287228,9.60074348 36.7576673,8.99011899 37.0310794,8.51655537 L39.7117367,3.8735208 C39.9826957,3.40420606 40.5940345,3.23963193 41.0717209,3.51542435 Z M51.3550574,13.5720516 L51.8073667,14.3554743 C52.0800077,14.8277025 51.9228339,15.4420465 51.4492702,15.7154586 L46.8062357,18.3961159 C46.3369209,18.6670748 45.7251989,18.5039308 45.4494065,18.0262443 L44.9970972,17.2428216 C44.7244562,16.7705935 44.88163,16.1562494 45.3551936,15.8828374 L49.9982282,13.2021801 C50.467543,12.9312211 51.0792649,13.0943651 51.3550574,13.5720516 Z M55.2845764,27.4752166 L55.2845764,28.3798353 C55.2845764,28.9251173 54.8412878,29.378568 54.2944637,29.378568 L48.9331491,29.378568 C48.3912312,29.378568 47.9430364,28.9314201 47.9430364,28.3798353 L47.9430364,27.4752166 C47.9430364,26.9299346 48.386325,26.4764839 48.9331491,26.4764839 L54.2944637,26.4764839 C54.8363816,26.4764839 55.2845764,26.9236318 55.2845764,27.4752166 Z M51.8073667,41.4995776 L51.3550574,42.2830003 C51.0824163,42.7552284 50.4717918,42.9262839 49.9982282,42.6528718 L45.3551936,39.9722145 C44.8858789,39.7012555 44.7213048,39.0899168 44.9970972,38.6122303 L45.4494065,37.8288075 C45.7220475,37.3565794 46.332672,37.185524 46.8062357,37.458936 L51.4492702,40.1395933 C51.918585,40.4105523 52.0831591,41.0218911 51.8073667,41.4995776 Z M41.8551437,51.8873182 L41.0717209,52.3396275 C40.5994928,52.6122686 39.9851488,52.4550947 39.7117367,51.9815311 L37.0310794,47.3384965 C36.7601204,46.8691818 36.9232645,46.2574598 37.4009509,45.9816674 L38.1843737,45.5293581 C38.6566018,45.256717 39.2709458,45.4138909 39.5443579,45.8874545 L42.2250152,50.5304891 C42.4959742,50.9998038 42.3328302,51.6115258 41.8551437,51.8873182 Z M3.92951906,42.2830003 L3.47720974,41.4995776 C3.20456871,41.0273494 3.36174256,40.4130054 3.83530619,40.1395933 L8.47834076,37.458936 C8.9476555,37.187977 9.55937748,37.3511211 9.8351699,37.8288075 L10.2874792,38.6122303 C10.5601203,39.0844584 10.4029464,39.6988024 9.92938277,39.9722145 L5.28634821,42.6528718 C4.81703346,42.9238308 4.20531148,42.7606868 3.92951906,42.2830003 Z M-7.56786299e-14,28.3798353 L-7.58448056e-14,27.4752166 C-7.59449723e-14,26.9299346 0.443288579,26.4764839 0.990112753,26.4764839 L6.35142727,26.4764839 C6.89334525,26.4764839 7.34154002,26.9236318 7.34154002,27.4752166 L7.34154002,28.3798353 C7.34154002,28.9251173 6.89825144,29.378568 6.35142727,29.378568 L0.990112753,29.378568 C0.448194767,29.378568 -7.55773054e-14,28.9314201 -7.56786299e-14,28.3798353 Z M3.47720974,14.3554743 L3.92951906,13.5720516 C4.20216009,13.0998235 4.81278458,12.928768 5.28634821,13.2021801 L9.92938277,15.8828374 C10.3986975,16.1537964 10.5632716,16.7651351 10.2874792,17.2428216 L9.8351699,18.0262443 C9.56252887,18.4984725 8.95190438,18.6695279 8.47834076,18.3961159 L3.83530619,15.7154586 C3.36599145,15.4444996 3.20141732,14.8331608 3.47720974,14.3554743 Z M13.4294327,3.96773367 L14.2128555,3.51542435 C14.6850836,3.24278332 15.2994276,3.39995717 15.5728397,3.8735208 L18.253497,8.51655537 C18.524456,8.98587011 18.361312,9.59759209 17.8836255,9.87338451 L17.1002028,10.3256938 C16.6279746,10.5983349 16.0136306,10.441161 15.7402185,9.96759738 L13.0595612,5.32456282 C12.7886022,4.85524807 12.9517463,4.24352609 13.4294327,3.96773367 Z" id="Aura-Copy" fill="#F6D135"></path>
                            </g>
                            <path d="M66.840275,65.0159687 L24.9228294,65.0159687 C20.0121454,65.0159687 16.03125,61.0438 16.03125,56.143881 C16.03125,51.243962 20.0121454,47.2717933 24.9228294,47.2717933 C25.067012,47.2717933 25.2103931,47.2752175 25.3528955,47.281989 C26.3962552,44.3230388 29.2219806,42.2020288 32.5441831,42.2020288 C36.3000726,42.2020288 39.4214022,44.9129452 40.0500959,48.4807751 C40.1258591,48.0894177 40.1655369,47.6852289 40.1655369,47.2717933 C40.1655369,44.372889 38.2147997,41.9286052 35.5516897,41.1745917 C38.2616878,35.7718613 43.860379,32.0625 50.3273419,32.0625 C58.5839861,32.0625 65.4252862,38.1090208 66.646382,46.0064198 C61.8252303,46.1093372 57.9486956,50.0411741 57.9486956,54.8764399 L58.0387404,54.8764399 C58.6550915,50.5769067 62.3608598,47.2717933 66.840275,47.2717933 C71.7509589,47.2717933 75.7318544,51.243962 75.7318544,56.143881 C75.7318544,61.0438 71.7509589,65.0159687 66.840275,65.0159687 Z" id="Cloud" fill="#BAC1E1"></path>
                        </g>
                        <path d="M1.95960591,46.9241153 C1.89149856,46.8824154 1.81319253,46.8603472 1.73333333,46.8603472 C1.49400994,46.8603472 1.3,47.0543571 1.3,47.2936805 L1.3,125.666667 C1.3,127.34193 2.65806959,128.7 4.33333333,128.7 L124.758704,128.7 C125.814506,128.7 126.794355,128.151009 127.345661,127.250575 C128.220429,125.821838 127.771349,123.954478 126.342612,123.07971 L1.95960591,46.9241153 Z" id="Rectangle-7" stroke="#BAC1E1" stroke-width="2.6" fill="#FFFFFF"></path>
                        <path d="M13.2050047,46.9241153 C13.1368973,46.8824154 13.0585913,46.8603472 12.9787321,46.8603472 C12.7394087,46.8603472 12.5453988,47.0543571 12.5453988,47.2936805 L12.5453988,125.666667 C12.5453988,127.34193 13.9034684,128.7 15.5787321,128.7 L136.004102,128.7 C137.059905,128.7 138.039753,128.151009 138.591059,127.250575 C139.465828,125.821838 139.016747,123.954478 137.58801,123.07971 L13.2050047,46.9241153 Z" id="Rectangle-7" stroke="#BAC1E1" stroke-width="2.6" fill="#FFFFFF" transform="translate(75.789772, 88.796623) scale(-1, 1) translate(-75.789772, -88.796623) "></path>
                        <path d="M3.22774203,127.777669 C3.10360852,127.857382 3.02855617,127.994771 3.02855617,128.142295 C3.02855617,128.381619 3.22256611,128.575629 3.4618895,128.575629 L137.082905,128.575629 C137.230429,128.575629 137.367819,128.500576 137.447532,128.376443 C137.576848,128.175065 137.51843,127.906985 137.317052,127.777669 L71.9114295,85.7770281 C70.9128246,85.1357676 69.6319697,85.1357676 68.6333649,85.7770281 L3.22774203,127.777669 Z" id="Rectangle-7" stroke="#BAC1E1" stroke-width="2.6" fill="#FFFFFF"></path>
                    </g>
                </g>
            </g>
        </g>
    </g>
</svg>