<?xml version="1.0" encoding="UTF-8"?>
<svg width="163px" height="153px" viewBox="0 0 163 153" version="1.1" xmlns="http://www.w3.org/2000/svg" xmlns:xlink="http://www.w3.org/1999/xlink">
    <!-- Generator: Sketch 50.2 (55047) - http://www.bohemiancoding.com/sketch -->
    <title>Group 10</title>
    <desc>Created with Sketch.</desc>
    <defs></defs>
    <g id="Landing-Page" stroke="none" stroke-width="1" fill="none" fill-rule="evenodd">
        <g id="PLan-Journey-Copy" transform="translate(-429.000000, -2220.000000)">
            <g id="Group-31" transform="translate(-3.000000, 1542.000000)">
                <g id="Group-26" transform="translate(365.000000, 608.000000)">
                    <g id="Group-10" transform="translate(63.000000, 66.000000)">
                        <circle id="Oval-2" fill="#EAEEFF" cx="88" cy="88" r="69"></circle>
                        <g id="icon/UV" transform="translate(0.000000, 43.000000)">
                            <path d="M24.140321,35.2838609 C30.4261511,35.2838609 35.5218226,30.1275558 35.5218226,23.7669304 C35.5218226,17.4063051 30.4261511,12.25 24.140321,12.25 C17.8544909,12.25 12.7588193,17.4063051 12.7588193,23.7669304 C12.7588193,30.1275558 17.8544909,35.2838609 24.140321,35.2838609 Z" id="Combined-Shape" fill="#FFA853"></path>
                            <path d="M24.2074519,3.5 L24.3320798,3.5 C24.8824903,3.5 25.3337979,3.94770266 25.3337979,4.49997189 L25.3337979,7.88349333 C25.3337979,8.44291367 24.8853134,8.88346522 24.3320798,8.88346522 L24.2074519,8.88346522 C23.6570414,8.88346522 23.2057337,8.43576256 23.2057337,7.88349333 L23.2057337,4.49997189 C23.2057337,3.94055155 23.6542183,3.5 24.2074519,3.5 Z M34.3506833,6.21249906 L34.4586142,6.27481298 C34.9352837,6.55001823 35.1022763,7.16339395 34.8261417,7.64167313 L33.1343809,10.5718887 C32.8546708,11.0563609 32.245996,11.2136475 31.7668816,10.9370306 L31.6589507,10.8747167 C31.1822812,10.5995115 31.0152887,9.98613573 31.2914233,9.50785656 L32.983184,6.57764103 C33.2628942,6.09316881 33.8715689,5.93588222 34.3506833,6.21249906 Z M41.792741,13.6854982 L41.855055,13.7934291 C42.1302602,14.2700986 41.9681922,14.8847938 41.489913,15.1609284 L38.5596975,16.8526892 C38.0752252,17.1323993 37.4694542,16.9642761 37.1928373,16.4851617 L37.1305234,16.3772308 C36.8553181,15.9005614 37.0173862,15.2858661 37.4956654,15.0097315 L40.4258809,13.3179708 C40.9103531,13.0382606 41.5161242,13.2063838 41.792741,13.6854982 Z M44.5395317,23.9166134 L44.5395317,24.0412413 C44.5395317,24.5916518 44.091829,25.0429594 43.5395598,25.0429594 L40.1560384,25.0429594 C39.596618,25.0429594 39.1560665,24.5944749 39.1560665,24.0412413 L39.1560665,23.9166134 C39.1560665,23.3662029 39.6037691,22.9148952 40.1560384,22.9148952 L43.5395598,22.9148952 C44.0989801,22.9148952 44.5395317,23.3633797 44.5395317,23.9166134 Z M41.855055,34.1644256 L41.792741,34.2723564 C41.5175358,34.7490259 40.9041601,34.9160185 40.4258809,34.6398839 L37.4956654,32.9481232 C37.0111931,32.668413 36.8539066,32.0597382 37.1305234,31.5806238 L37.1928373,31.472693 C37.4680426,30.9960235 38.0814183,30.8290309 38.5596975,31.1051655 L41.489913,32.7969262 C41.9743852,33.0766364 42.1316718,33.6853112 41.855055,34.1644256 Z M34.4586142,41.6830417 L34.3506833,41.7453556 C33.8740139,42.0205609 33.2593186,41.8584928 32.983184,41.3802136 L31.2914233,38.4499981 C31.0117131,37.9655259 31.1798363,37.3597548 31.6589507,37.083138 L31.7668816,37.0208241 C32.2435511,36.7456188 32.8582463,36.9076868 33.1343809,37.385966 L34.8261417,40.3161815 C35.1058518,40.8006538 34.9377286,41.4064249 34.4586142,41.6830417 Z M24.3320798,44.4578547 L24.2074519,44.4578547 C23.6570414,44.4578547 23.2057337,44.010152 23.2057337,43.4578828 L23.2057337,40.0743613 C23.2057337,39.514941 23.6542183,39.0743895 24.2074519,39.0743895 L24.3320798,39.0743895 C24.8824903,39.0743895 25.3337979,39.5220921 25.3337979,40.0743613 L25.3337979,43.4578828 C25.3337979,44.0173031 24.8853134,44.4578547 24.3320798,44.4578547 Z M14.1888484,41.7453556 L14.0809175,41.6830417 C13.604248,41.4078364 13.4372554,40.7944607 13.71339,40.3161815 L15.4051508,37.385966 C15.6848609,36.9014938 16.2935357,36.7442072 16.7726501,37.0208241 L16.880581,37.083138 C17.3572504,37.3583432 17.524243,37.9717189 17.2481084,38.4499981 L15.5563477,41.3802136 C15.2766375,41.8646859 14.6679628,42.0219724 14.1888484,41.7453556 Z M6.74679065,34.2723564 L6.68447673,34.1644256 C6.40927149,33.6877561 6.57133953,33.0730608 7.0496187,32.7969262 L9.97983423,31.1051655 C10.4643064,30.8254553 11.0700775,30.9935785 11.3466944,31.472693 L11.4090083,31.5806238 C11.6842135,32.0572933 11.5221455,32.6719886 11.0438663,32.9481232 L8.1136508,34.6398839 C7.62917858,34.9195941 7.02340749,34.7514709 6.74679065,34.2723564 Z M4,24.0412413 L4,23.9166134 C4,23.3662029 4.44770266,22.9148952 4.99997189,22.9148952 L8.38349333,22.9148952 C8.94291367,22.9148952 9.38346522,23.3633797 9.38346522,23.9166134 L9.38346522,24.0412413 C9.38346522,24.5916518 8.93576256,25.0429594 8.38349333,25.0429594 L4.99997189,25.0429594 C4.44055155,25.0429594 4,24.5944749 4,24.0412413 Z M6.68447673,13.7934291 L6.74679065,13.6854982 C7.0219959,13.2088288 7.63537162,13.0418362 8.1136508,13.3179708 L11.0438663,15.0097315 C11.5283385,15.2894417 11.6856251,15.8981164 11.4090083,16.3772308 L11.3466944,16.4851617 C11.0714891,16.9618312 10.4581134,17.1288238 9.97983423,16.8526892 L7.0496187,15.1609284 C6.56514648,14.8812183 6.4078599,14.2725435 6.68447673,13.7934291 Z M14.0809175,6.27481298 L14.1888484,6.21249906 C14.6655178,5.93729381 15.2802131,6.09936185 15.5563477,6.57764103 L17.2481084,9.50785656 C17.5278186,9.99232878 17.3596954,10.5980999 16.880581,10.8747167 L16.7726501,10.9370306 C16.2959806,11.2122359 15.6812854,11.0501678 15.4051508,10.5718887 L13.71339,7.64167313 C13.4336799,7.15720091 13.6018031,6.55142982 14.0809175,6.27481298 Z" id="Aura" fill="#FFC184"></path>
                            <path d="M24.140321,32.7430722 C29.039413,32.7430722 33.0109113,28.7243169 33.0109113,23.7669304 C33.0109113,18.809544 29.039413,14.7907887 24.140321,14.7907887 C19.241229,14.7907887 15.2697306,18.809544 15.2697306,23.7669304 C15.2697306,28.7243169 19.241229,32.7430722 24.140321,32.7430722 Z" id="Oval-16" fill="#FFC184"></path>
                        </g>
                        <g id="icon/wind" transform="translate(17.000000, 114.000000)">
                            <path d="M27.6961504,31.1568627 C27.6961504,32.5960519 28.861794,33.7627451 30.2996884,33.7627451 C31.7375828,33.7627451 32.9032264,32.5960519 32.9032264,31.1568627 C32.9032264,29.7176736 31.7375828,28.5509804 30.2996884,28.5509804 L12.9427681,28.5509804 C12.46347,28.5509804 12.0749221,28.1620827 12.0749221,27.6823529 C12.0749221,27.2026232 12.46347,26.8137255 12.9427681,26.8137255 L30.2996884,26.8137255 C32.6961791,26.8137255 34.6389185,28.7582142 34.6389185,31.1568627 C34.6389185,33.5555113 32.6961791,35.5 30.2996884,35.5 C27.9031977,35.5 25.9604583,33.5555113 25.9604583,31.1568627 C25.9604583,30.677133 26.3490062,30.2882353 26.8283043,30.2882353 C27.3076025,30.2882353 27.6961504,30.677133 27.6961504,31.1568627 Z" id="Rectangle-64" fill="#92D9D2"></path>
                            <path d="M10.3392301,21.6019608 C9.85993193,21.6019608 9.47138406,21.213063 9.47138406,20.7333333 C9.47138406,20.2536036 9.85993193,19.8647059 10.3392301,19.8647059 L25.0926123,19.8647059 C26.0512086,19.8647059 26.8283043,19.0869104 26.8283043,18.127451 C26.8283043,17.1679915 26.0512086,16.3901961 25.0926123,16.3901961 C24.134016,16.3901961 23.3569203,17.1679915 23.3569203,18.127451 C23.3569203,18.6071807 22.9683724,18.9960784 22.4890743,18.9960784 C22.0097761,18.9960784 21.6212283,18.6071807 21.6212283,18.127451 C21.6212283,16.2085321 23.1754197,14.6529412 25.0926123,14.6529412 C27.0098049,14.6529412 28.5639964,16.2085321 28.5639964,18.127451 C28.5639964,20.0463698 27.0098049,21.6019608 25.0926123,21.6019608 L10.3392301,21.6019608 Z" id="Rectangle-64" fill="#92D9D2"></path>
                            <path d="M6.86784601,25.0764706 C6.38854787,25.0764706 6,24.6875729 6,24.2078431 C6,23.7281134 6.38854787,23.3392157 6.86784601,23.3392157 L36.3746105,23.3392157 C38.7711012,23.3392157 40.7138406,21.394727 40.7138406,18.9960784 C40.7138406,16.5974298 38.7711012,14.6529412 36.3746105,14.6529412 C33.9781198,14.6529412 32.0353804,16.5974298 32.0353804,18.9960784 C32.0353804,19.7739378 32.2396875,20.5040357 32.5975215,21.1355461 C32.5964916,21.1357525 32.5954671,21.1359589 32.5944479,21.1361653 C32.6800539,21.2707759 32.7296466,21.4305716 32.7296466,21.6019608 C32.7296466,22.0816905 32.3410988,22.4705882 31.8618006,22.4705882 C31.5497935,22.4705882 31.2762424,22.3057898 31.1232951,22.0584141 C31.1075418,22.0329349 31.093068,22.0065796 31.0799635,21.9794382 C30.5831603,21.0980556 30.2996884,20.0802011 30.2996884,18.9960784 C30.2996884,15.6379704 33.0195235,12.9156863 36.3746105,12.9156863 C39.7296975,12.9156863 42.4495326,15.6379704 42.4495326,18.9960784 C42.4495326,22.3541865 39.7296975,25.0764706 36.3746105,25.0764706 L6.86784601,25.0764706 Z" id="Rectangle-64" fill="#5FBCB3"></path>
                        </g>
                        <g id="icon/precipitation" transform="translate(129.000000, 43.000000)">
                            <path d="M27.4743708,24.7876997 C27.1983747,25.5106303 26.9244389,26.273913 26.6669446,27.0530603 C26.3600006,27.9818364 26.0943839,28.8799767 25.8823993,29.7250297 C25.3806197,31.7253191 25.2215632,33.293036 25.4412336,34.1128571 C26.097103,36.5605945 28.7265295,38.1173359 30.8572916,37.5463998 C33.178963,36.9243098 34.5675771,34.6139125 33.830964,31.8648355 C33.7010593,31.3800247 33.4036304,30.7954285 32.9492198,30.1419924 C32.304409,29.2147634 31.381568,28.1996882 30.2560176,27.146467 C29.3905797,26.3366431 28.4583171,25.5527488 27.5257169,24.8275653 C27.5085351,24.8142048 27.4914193,24.8009161 27.4743708,24.7876997 Z" id="Drops_2" stroke="#479EE7" stroke-width="3" fill="#479EE7" transform="translate(29.691629, 30.839367) rotate(-10.000000) translate(-29.691629, -30.839367) "></path>
                            <path d="M20.3921165,23.4878857 C21.2283369,26.6087025 19.4066703,28.9842854 17.1131366,29.598836 C14.819603,30.2133865 11.9496746,28.6768027 11.2179817,25.9460879 C10.4862889,23.2153731 13.3451551,16.5230202 13.3451551,16.5230202 C13.4336798,16.3085794 13.6556948,16.2419321 13.8506022,16.3838378 C13.8506022,16.3838378 19.555896,20.367069 20.3921165,23.4878857 Z" id="Drops_2-Copy" fill="#76C1FF" transform="translate(15.849933, 22.977729) rotate(-10.000000) translate(-15.849933, -22.977729) "></path>
                            <path d="M36.7031317,15.9767497 C37.5247295,19.0429943 35.7349175,21.3770367 33.4814896,21.9808409 C31.2280618,22.5846451 28.4083184,21.0749307 27.6894202,18.3919665 C26.9705221,15.7090023 29.7710689,9.15424693 29.7710689,9.15424693 C29.862645,8.93219443 30.0966523,8.86626599 30.2936316,9.00988264 C30.2936316,9.00988264 35.8815337,12.910505 36.7031317,15.9767497 Z" id="Drops_2-Copy-2" fill="#76C1FF" transform="translate(32.240323, 15.476095) rotate(-10.000000) translate(-32.240323, -15.476095) "></path>
                        </g>
                        <g id="icon/temp" transform="translate(65.000000, 0.000000)">
                            <path d="M27,23.5 L27,21 L29,21 L29,23.5 L27,23.5 Z M27,25.5 L29,25.5 L29,27.9002901 C31.4071915,29.4592226 33,32.1686011 33,35.25 C33,40.0824916 29.0824916,44 24.25,44 C19.4175084,44 15.5,40.0824916 15.5,35.25 C15.5,32.1686011 17.0928085,29.4592226 19.5,27.9002901 L19.5,8.75 C19.5,6.12664744 21.6266474,4 24.25,4 C26.8733526,4 29,6.12664744 29,8.75 L29,14.5 L27,14.5 L27,9.25 C27,7.73121694 25.7687831,6.5 24.25,6.5 C22.7312169,6.5 21.5,7.73121694 21.5,9.25 L21.5,29.6359481 C19.4270171,30.6533002 18,32.7850012 18,35.25 C18,38.7017797 20.7982203,41.5 24.25,41.5 C27.7017797,41.5 30.5,38.7017797 30.5,35.25 C30.5,32.7850012 29.0729829,30.6533002 27,29.6359481 L27,25.5 Z M27,19 L27,16.5 L29,16.5 L29,19 L27,19 Z" id="Combined-Shape" fill="#F049CA"></path>
                            <circle id="Oval-18" fill="#FF86E4" cx="24.25" cy="35.25" r="4.25"></circle>
                            <rect id="Rectangle" fill="#FF86E4" x="23" y="16.5" width="2.5" height="17.5"></rect>
                        </g>
                        <g id="icon/cloud" transform="translate(109.000000, 114.000000)" fill="#BAC1E1">
                            <path d="M10.1701962,32.8635612 C6.98662553,32.8635612 4.40583187,30.288425 4.40583187,27.1118332 C4.40583187,23.9352413 6.98662553,21.3601052 10.1701962,21.3601052 C10.2636691,21.3601052 10.3566223,21.3623251 10.4490058,21.366715 C11.1254104,19.4484431 12.9573134,18.0734034 15.1110799,18.0734034 C17.5460034,18.0734034 19.569545,19.8308763 19.9771239,22.1438817 C20.0262408,21.8901668 20.0519636,21.6281333 20.0519636,21.3601052 C20.0519636,19.4807607 18.7873109,17.8961443 17.0608307,17.4073213 C18.8177083,13.9047595 22.4473105,11.5 26.6398086,11.5 C31.9925478,11.5 36.4277268,15.4199278 37.2193568,20.5397702 C34.0938295,20.606491 31.5806923,23.1554802 31.5806923,26.2901577 C32.0386451,23.5027929 34.4410752,21.3601052 37.3450566,21.3601052 C40.5286273,21.3601052 43.109421,23.9352413 43.109421,27.1118332 C43.109421,30.288425 40.5286273,32.8635612 37.3450566,32.8635612 L10.1701962,32.8635612 Z" id="Cloud"></path>
                        </g>
                    </g>
                </g>
            </g>
        </g>
    </g>
</svg>