<?xml version="1.0" encoding="UTF-8"?>
<svg width="265px" height="99px" viewBox="0 0 265 99" version="1.1" xmlns="http://www.w3.org/2000/svg" xmlns:xlink="http://www.w3.org/1999/xlink">
    <!-- Generator: Sketch 50.2 (55047) - http://www.bohemiancoding.com/sketch -->
    <title>Report/averages Copy</title>
    <desc>Created with Sketch.</desc>
    <defs></defs>
    <g id="Landing-Page" stroke="none" stroke-width="1" fill="none" fill-rule="evenodd">
        <g id="PLan-Journey-Copy" transform="translate(-710.000000, -2250.000000)">
            <g id="Group-31" transform="translate(-3.000000, 1542.000000)">
                <g id="Group-25" transform="translate(695.000000, 608.000000)">
                    <g id="Report/weather-card-Copy-3" transform="translate(24.000000, 106.000000)">
                        <g id="Report/Bottom-Background-teale-Copy" transform="translate(0.000000, 37.241379)" fill="#FFFFFF" fill-rule="evenodd" stroke="#7A83A4" stroke-width="0.931034483">
                            <path d="M-0.465517241,-0.465517241 L253.465517,-0.465517241 L253.465517,47.4279919 C253.465517,48.7134823 252.423421,49.7555781 251.137931,49.7555781 L1.86206897,49.7555781 C0.5765786,49.7555781 -0.465517241,48.7134823 -0.465517241,47.4279919 L-0.465517241,-0.465517241 Z" id="Bottom-Background"></path>
                        </g>
                        <g id="Report/Top-Background-teale-Copy" fill="#F7F7F7" fill-rule="evenodd" stroke="#7A83A4" stroke-width="0.931034483">
                            <path d="M1.86206897,-0.465517241 L251.137931,-0.465517241 C252.423421,-0.465517241 253.465517,0.5765786 253.465517,1.86206897 L253.465517,37.4368602 L-0.465517241,37.4368602 L-0.465517241,1.86206897 C-0.465517241,0.5765786 0.5765786,-0.465517241 1.86206897,-0.465517241 Z" id="Top-Background"></path>
                        </g>
                        <g id="Report/weather-card/expand" transform="translate(-0.872414, 0.000000)">
                            <text id="Card-Label" font-family="Saira-Medium, Saira" font-size="11.1724138" font-weight="400" fill="#454D6D">
                                <tspan x="34.4482759" y="18.5862069">Percieved Temperature (ยบC)</tspan>
                            </text>
                            <g id="icon/temp" transform="translate(4.655172, 5.586207)" fill-rule="evenodd">
                                <path d="M13.9655172,11.6689655 L13.9655172,10.4275862 L15,10.4275862 L15,11.6689655 L13.9655172,11.6689655 Z M13.9655172,12.662069 L15,12.662069 L15,13.8539371 C16.245099,14.6280278 17.0689655,15.9733743 17.0689655,17.5034483 C17.0689655,19.9030303 15.042668,21.8482759 12.5431034,21.8482759 C10.0435388,21.8482759 8.01724138,19.9030303 8.01724138,17.5034483 C8.01724138,15.9733743 8.84110787,14.6280278 10.0862069,13.8539371 L10.0862069,4.44310345 C10.0862069,3.08619695 11.186197,1.9862069 12.5431034,1.9862069 C13.9000099,1.9862069 15,3.08619695 15,4.44310345 L15,7.2 L13.9655172,7.2 L13.9655172,4.65 C13.9655172,3.86442255 13.3286809,3.22758621 12.5431034,3.22758621 C11.757526,3.22758621 11.1206897,3.86442255 11.1206897,4.65 L11.1206897,14.7157811 C10.0484571,15.2209491 9.31034483,16.2794489 9.31034483,17.5034483 C9.31034483,19.2174354 10.7577002,20.6068966 12.5431034,20.6068966 C14.3285067,20.6068966 15.7758621,19.2174354 15.7758621,17.5034483 C15.7758621,16.2794489 15.0377498,15.2209491 13.9655172,14.7157811 L13.9655172,12.662069 Z M13.9655172,9.43448276 L13.9655172,8.19310345 L15,8.19310345 L15,9.43448276 L13.9655172,9.43448276 Z" id="Combined-Shape" fill="#F049CA"></path>
                                <ellipse id="Oval-18" fill="#FF86E4" cx="12.5431034" cy="17.5034483" rx="2.19827586" ry="2.11034483"></ellipse>
                                <rect id="Rectangle" fill="#FF86E4" x="11.8965517" y="8.19310345" width="1.29310345" height="8.68965517"></rect>
                            </g>
                        </g>
                        <g id="Report/weather-card/summary" transform="translate(6.106897, 46.551724)">
                            <path d="M43.6535623,9.31034483 L95.6031356,9.31034483" id="Line" stroke="#BAC1E1" stroke-width="0.931034483" stroke-linecap="square"></path>
                            <path id="Line-decoration-1" d="M43.6535623,6.31034483 L43.6535623,12.3103448" stroke="#BAC1E1" stroke-width="0.931034483" stroke-linecap="square"></path>
                            <g id="Group-3" stroke-width="1" fill-rule="evenodd" transform="translate(97.836495, 0.000000)">
                                <text id="Average-Label" font-family="Saira-Regular, Saira" font-size="11.1724138" font-weight="normal" fill="#606783">
                                    <tspan x="1.07340581" y="32.5517241">Average</tspan>
                                </text>
                                <text id="Average" font-family="Roboto-Bold, Roboto" font-size="18.6206897" font-weight="bold" letter-spacing="-0.517241515" fill="#000438">
                                    <tspan x="8.48482358" y="17">10ยบ</tspan>
                                </text>
                            </g>
                            <path d="M141.872359,9.31034483 L197.314102,9.31034483" id="Line" stroke="#BAC1E1" stroke-width="0.931034483" stroke-linecap="square"></path>
                            <path id="Line-decoration-1" d="M197.314102,6.31034483 L197.314102,12.3103448" stroke="#BAC1E1" stroke-width="0.931034483" stroke-linecap="square"></path>
                            <g id="Report/weather-card/measure" fill="#606783">
                                <text id="Label" font-family="Saira-Regular, Saira" font-size="10.2413793" font-weight="normal">
                                    <tspan x="11.8969963" y="31.5517241">Low</tspan>
                                </text>
                                <text id="Measure" font-family="Roboto-Medium, Roboto" font-size="13.0344828" font-weight="400" letter-spacing="-0.362069083">
                                    <tspan x="15.4727019" y="12">7ยบ</tspan>
                                </text>
                            </g>
                            <g id="Report/weather-card/measure" transform="translate(197.314102, 0.000000)" fill="#606783">
                                <text id="Label" font-family="Saira-Regular, Saira" font-size="10.2413793" font-weight="normal">
                                    <tspan x="10.6475481" y="31.5517241">High</tspan>
                                </text>
                                <text id="Measure" font-family="Roboto-Medium, Roboto" font-size="13.0344828" font-weight="400" letter-spacing="-0.362069083">
                                    <tspan x="11.9496012" y="12">14ยบ</tspan>
                                </text>
                            </g>
                        </g>
                    </g>
                </g>
            </g>
        </g>
    </g>
</svg>