<?xml version="1.0" encoding="UTF-8"?>
<svg width="207px" height="158px" viewBox="0 0 207 158" version="1.1" xmlns="http://www.w3.org/2000/svg" xmlns:xlink="http://www.w3.org/1999/xlink">
    <!-- Generator: Sketch 50.2 (55047) - http://www.bohemiancoding.com/sketch -->
    <title>Group 7</title>
    <desc>Created with Sketch.</desc>
    <defs></defs>
    <g id="Landing-Page" stroke="none" stroke-width="1" fill="none" fill-rule="evenodd">
        <g id="PLan-Journey-Copy" transform="translate(-412.000000, -2546.000000)">
            <g id="Group-31" transform="translate(-3.000000, 1542.000000)">
                <g id="Group-29" transform="translate(365.000000, 938.000000)">
                    <g id="Group-7" transform="translate(47.000000, 66.000000)">
                        <ellipse id="Oval-5" fill="#BAC1E1" cx="106.5" cy="43.5" rx="15.5" ry="2.5"></ellipse>
                        <ellipse id="Oval-5-Copy" fill="#BAC1E1" cx="106.5" cy="155.5" rx="15.5" ry="2.5"></ellipse>
                        <path d="M106.478261,35.6316236 C116.130435,26.8601302 120.956522,19.8090093 120.956522,14.4782609 C120.956522,6.48213819 114.474384,0 106.478261,0 C98.4821382,0 92,6.48213819 92,14.4782609 C92,19.8090093 96.826087,26.8601302 106.478261,35.6316236 Z" id="Oval-3-Copy" fill="#B4C3FF"></path>
                        <circle id="Oval-4-Copy" fill="#FFFFFF" cx="106.478261" cy="14.4782609" r="5.86956522"></circle>
                        <path d="M106.478261,147.631624 C116.130435,138.86013 120.956522,131.809009 120.956522,126.478261 C120.956522,118.482138 114.474384,112 106.478261,112 C98.4821382,112 92,118.482138 92,126.478261 C92,131.809009 96.826087,138.86013 106.478261,147.631624 Z" id="Oval-3-Copy" fill="#B4C3FF"></path>
                        <circle id="Oval-4-Copy" fill="#FFFFFF" cx="106.478261" cy="126.478261" r="5.86956522"></circle>
                        <path d="M80.7596689,128.740234 C7.52334081,128.740234 2.67568456,16 80.7596689,16" id="Path-2" stroke="#EAEEFF" stroke-width="3" stroke-linecap="round"></path>
                        <path id="Path-2-decoration-1" d="M80.7596689,16 L69.9596689,13 L69.9596689,19 L80.7596689,16 Z" stroke="#EAEEFF" stroke-width="3" stroke-linecap="round"></path>
                        <path d="M188.759669,128.740234 C115.523341,128.740234 110.675685,16 188.759669,16" id="Path-2-Copy" stroke="#EAEEFF" stroke-width="3" stroke-linecap="round" transform="translate(160.379834, 72.370117) scale(-1, -1) translate(-160.379834, -72.370117) "></path>
                        <path id="Path-2-Copy-decoration-1" d="M188.759669,16 L177.959669,13 L177.959669,19 L188.759669,16 Z" stroke="#EAEEFF" stroke-width="3" stroke-linecap="round"></path>
                        <g id="icon/weather/rain" transform="translate(0.000000, 51.000000)">
                            <path d="M18.0435367,36.3951169 C18.4173399,37.7901694 17.6030273,38.8520911 16.5777829,39.1268045 C15.5525385,39.4015179 14.2696369,38.7146416 13.9425591,37.4939706 C13.6154813,36.2732996 14.8030244,33.5090364 14.8030244,33.5090364 C14.8925303,33.2876326 15.1273998,33.2253942 15.3117604,33.3631608 C15.3117604,33.3631608 17.6697334,35.0000644 18.0435367,36.3951169 Z M27.4373009,41.294684 C27.9885186,43.3518565 26.7877168,44.9177876 25.2758708,45.3228856 C23.7640247,45.7279835 21.8722322,44.7151019 21.3899166,42.9150758 C20.9076011,41.1150498 22.7375166,36.8393847 22.7375166,36.8393847 C22.8260166,36.6230386 23.0501239,36.5569251 23.2410002,36.6974521 C23.2410002,36.6974521 26.886083,39.2375115 27.4373009,41.294684 Z M35.4856744,37.4009541 C35.9663621,39.1949048 34.9192067,40.5604699 33.6008062,40.9137343 C32.2824057,41.2669987 30.6326741,40.3837185 30.2120723,38.8140115 C29.7914706,37.2443046 31.3695929,33.5600833 31.3695929,33.5600833 C31.4565167,33.3469208 31.6773667,33.2821602 31.8767634,33.4296531 C31.8767634,33.4296531 35.0049866,35.6070034 35.4856744,37.4009541 Z" id="Drops_2" fill="#3490DC"></path>
                            <path d="M9.55200764,30.8448918 C6.20957595,30.8448918 3.5,28.1514673 3.5,24.8289594 C3.5,21.5064515 6.20957595,18.813027 9.55200764,18.813027 C9.65014481,18.813027 9.74773643,18.8153489 9.84472991,18.8199405 C10.5548873,16.8135532 12.4782028,15.3753513 14.7394428,15.3753513 C17.2958695,15.3753513 19.4203864,17.2135533 19.8483036,19.6328062 C19.8998714,19.3674369 19.9268779,19.093367 19.9268779,18.813027 C19.9268779,16.8473552 18.5991187,15.1899499 16.7864866,14.6786729 C18.6310329,11.0152216 22.4417531,8.5 26.843458,8.5 C32.4633003,8.5 37.119796,12.5999888 37.9509285,17.9550101 C34.6694365,18.0247957 32.0308931,20.6908722 32.0308931,23.9695405 C32.5116979,21.0541386 35.0340099,18.813027 38.0829008,18.813027 C41.4253325,18.813027 44.1349084,21.5064515 44.1349084,24.8289594 C44.1349084,28.1514673 41.4253325,30.8448918 38.0829008,30.8448918 L9.55200764,30.8448918 Z" id="Cloud" fill="#7A83A4"></path>
                        </g>
                        <g id="icon/weather/clear-day" transform="translate(165.000000, 51.000000)">
                            <path d="M24.140321,34.5338609 C30.0168083,34.5338609 34.7806419,29.7133422 34.7806419,23.7669304 C34.7806419,17.8205187 30.0168083,13 24.140321,13 C18.2638337,13 13.5,17.8205187 13.5,23.7669304 C13.5,29.7133422 18.2638337,34.5338609 24.140321,34.5338609 Z" id="Oval-16" stroke="#F8CE1C" stroke-width="4" fill="#F8CE1C"></path>
                            <path d="M24.2074519,3.5 L24.3320798,3.5 C24.8824903,3.5 25.3337979,3.94770266 25.3337979,4.49997189 L25.3337979,7.88349333 C25.3337979,8.44291367 24.8853134,8.88346522 24.3320798,8.88346522 L24.2074519,8.88346522 C23.6570414,8.88346522 23.2057337,8.43576256 23.2057337,7.88349333 L23.2057337,4.49997189 C23.2057337,3.94055155 23.6542183,3.5 24.2074519,3.5 Z M34.3506833,6.21249906 L34.4586142,6.27481298 C34.9352837,6.55001823 35.1022763,7.16339395 34.8261417,7.64167313 L33.1343809,10.5718887 C32.8546708,11.0563609 32.245996,11.2136475 31.7668816,10.9370306 L31.6589507,10.8747167 C31.1822812,10.5995115 31.0152887,9.98613573 31.2914233,9.50785656 L32.983184,6.57764103 C33.2628942,6.09316881 33.8715689,5.93588222 34.3506833,6.21249906 Z M41.792741,13.6854982 L41.855055,13.7934291 C42.1302602,14.2700986 41.9681922,14.8847938 41.489913,15.1609284 L38.5596975,16.8526892 C38.0752252,17.1323993 37.4694542,16.9642761 37.1928373,16.4851617 L37.1305234,16.3772308 C36.8553181,15.9005614 37.0173862,15.2858661 37.4956654,15.0097315 L40.4258809,13.3179708 C40.9103531,13.0382606 41.5161242,13.2063838 41.792741,13.6854982 Z M44.5395317,23.9166134 L44.5395317,24.0412413 C44.5395317,24.5916518 44.091829,25.0429594 43.5395598,25.0429594 L40.1560384,25.0429594 C39.596618,25.0429594 39.1560665,24.5944749 39.1560665,24.0412413 L39.1560665,23.9166134 C39.1560665,23.3662029 39.6037691,22.9148952 40.1560384,22.9148952 L43.5395598,22.9148952 C44.0989801,22.9148952 44.5395317,23.3633797 44.5395317,23.9166134 Z M41.855055,34.1644256 L41.792741,34.2723564 C41.5175358,34.7490259 40.9041601,34.9160185 40.4258809,34.6398839 L37.4956654,32.9481232 C37.0111931,32.668413 36.8539066,32.0597382 37.1305234,31.5806238 L37.1928373,31.472693 C37.4680426,30.9960235 38.0814183,30.8290309 38.5596975,31.1051655 L41.489913,32.7969262 C41.9743852,33.0766364 42.1316718,33.6853112 41.855055,34.1644256 Z M34.4586142,41.6830417 L34.3506833,41.7453556 C33.8740139,42.0205609 33.2593186,41.8584928 32.983184,41.3802136 L31.2914233,38.4499981 C31.0117131,37.9655259 31.1798363,37.3597548 31.6589507,37.083138 L31.7668816,37.0208241 C32.2435511,36.7456188 32.8582463,36.9076868 33.1343809,37.385966 L34.8261417,40.3161815 C35.1058518,40.8006538 34.9377286,41.4064249 34.4586142,41.6830417 Z M24.3320798,44.4578547 L24.2074519,44.4578547 C23.6570414,44.4578547 23.2057337,44.010152 23.2057337,43.4578828 L23.2057337,40.0743613 C23.2057337,39.514941 23.6542183,39.0743895 24.2074519,39.0743895 L24.3320798,39.0743895 C24.8824903,39.0743895 25.3337979,39.5220921 25.3337979,40.0743613 L25.3337979,43.4578828 C25.3337979,44.0173031 24.8853134,44.4578547 24.3320798,44.4578547 Z M14.1888484,41.7453556 L14.0809175,41.6830417 C13.604248,41.4078364 13.4372554,40.7944607 13.71339,40.3161815 L15.4051508,37.385966 C15.6848609,36.9014938 16.2935357,36.7442072 16.7726501,37.0208241 L16.880581,37.083138 C17.3572504,37.3583432 17.524243,37.9717189 17.2481084,38.4499981 L15.5563477,41.3802136 C15.2766375,41.8646859 14.6679628,42.0219724 14.1888484,41.7453556 Z M6.74679065,34.2723564 L6.68447673,34.1644256 C6.40927149,33.6877561 6.57133953,33.0730608 7.0496187,32.7969262 L9.97983423,31.1051655 C10.4643064,30.8254553 11.0700775,30.9935785 11.3466944,31.472693 L11.4090083,31.5806238 C11.6842135,32.0572933 11.5221455,32.6719886 11.0438663,32.9481232 L8.1136508,34.6398839 C7.62917858,34.9195941 7.02340749,34.7514709 6.74679065,34.2723564 Z M4,24.0412413 L4,23.9166134 C4,23.3662029 4.44770266,22.9148952 4.99997189,22.9148952 L8.38349333,22.9148952 C8.94291367,22.9148952 9.38346522,23.3633797 9.38346522,23.9166134 L9.38346522,24.0412413 C9.38346522,24.5916518 8.93576256,25.0429594 8.38349333,25.0429594 L4.99997189,25.0429594 C4.44055155,25.0429594 4,24.5944749 4,24.0412413 Z M6.68447673,13.7934291 L6.74679065,13.6854982 C7.0219959,13.2088288 7.63537162,13.0418362 8.1136508,13.3179708 L11.0438663,15.0097315 C11.5283385,15.2894417 11.6856251,15.8981164 11.4090083,16.3772308 L11.3466944,16.4851617 C11.0714891,16.9618312 10.4581134,17.1288238 9.97983423,16.8526892 L7.0496187,15.1609284 C6.56514648,14.8812183 6.4078599,14.2725435 6.68447673,13.7934291 Z M14.0809175,6.27481298 L14.1888484,6.21249906 C14.6655178,5.93729381 15.2802131,6.09936185 15.5563477,6.57764103 L17.2481084,9.50785656 C17.5278186,9.99232878 17.3596954,10.5980999 16.880581,10.8747167 L16.7726501,10.9370306 C16.2959806,11.2122359 15.6812854,11.0501678 15.4051508,10.5718887 L13.71339,7.64167313 C13.4336799,7.15720091 13.6018031,6.55142982 14.0809175,6.27481298 Z" id="Aura" fill="#F6D135"></path>
                        </g>
                    </g>
                </g>
            </g>
        </g>
    </g>
</svg>