<?xml version="1.0" encoding="UTF-8"?>
<svg width="824px" height="181px" viewBox="0 0 824 181" version="1.1" xmlns="http://www.w3.org/2000/svg" xmlns:xlink="http://www.w3.org/1999/xlink">
    <!-- Generator: Sketch 50.2 (55047) - http://www.bohemiancoding.com/sketch -->
    <title>Group 2</title>
    <desc>Created with Sketch.</desc>
    <defs>
        <radialGradient cx="50%" cy="50%" fx="50%" fy="50%" r="44.1333912%" id="radialGradient-1">
            <stop stop-color="#FFFFFF" offset="0%"></stop>
            <stop stop-color="#FFFFFF" stop-opacity="0.63326409" offset="66.3859285%"></stop>
            <stop stop-color="#FFFFFF" stop-opacity="0" offset="100%"></stop>
        </radialGradient>
    </defs>
    <g id="Landing-Page" stroke="none" stroke-width="1" fill="none" fill-rule="evenodd">
        <g id="PLan-Journey-Copy" transform="translate(-100.000000, -223.000000)">
            <g id="Group-15" transform="translate(0.000000, -28.000000)">
                <g id="Group-2" transform="translate(100.000000, 251.000000)">
                    <path d="M42.0546875,68.7392559 C79.4806586,88.0373348 176.38175,137.27051 411.554688,137.27051 C646.727625,137.27051 734.960872,88.0373348 781.054688,68.7392559" id="Path-2" stroke="#4167FF" stroke-width="7" opacity="0.207477679" stroke-linecap="round" stroke-linejoin="round" stroke-dasharray="16,19"></path>
                    <circle id="Oval" fill="url(#radialGradient-1)" cx="220" cy="118" r="60"></circle>
                    <circle id="Oval" fill="url(#radialGradient-1)" cx="412" cy="128" r="60"></circle>
                    <circle id="Oval-Copy" fill="url(#radialGradient-1)" cx="605" cy="116" r="60"></circle>
                    <g id="icon/weather/clear-day" transform="translate(172.000000, 73.000000)">
                        <path d="M48.2806419,69.0677218 C60.0336165,69.0677218 69.5612839,59.4266844 69.5612839,47.5338609 C69.5612839,35.6410373 60.0336165,26 48.2806419,26 C36.5276674,26 27,35.6410373 27,47.5338609 C27,59.4266844 36.5276674,69.0677218 48.2806419,69.0677218 Z" id="Oval-16" stroke="#F8CE1C" stroke-width="4" fill="#F8CE1C"></path>
                        <path d="M47.4201105,7 L49.6589529,7 C50.2121156,7 50.6675959,7.44486235 50.6675959,7.99362786 L50.6675959,16.7733026 C50.6675959,17.3179967 50.216011,17.7669304 49.6589529,17.7669304 L47.4201105,17.7669304 C46.8669478,17.7669304 46.4114675,17.3220681 46.4114675,16.7733026 L46.4114675,7.99362786 C46.4114675,7.44893373 46.8630524,7 47.4201105,7 Z M67.8398504,11.9276015 L69.7787447,13.0470226 C70.2577977,13.323604 70.429824,13.9366062 70.1554413,14.4118511 L65.7656039,22.0152725 C65.4932568,22.4869914 64.877706,22.649987 64.3952795,22.3714579 L62.4563851,21.2520367 C61.9773322,20.9754554 61.8053058,20.3624531 62.0796886,19.8872083 L66.469526,12.2837869 C66.741873,11.812068 67.3574238,11.6490724 67.8398504,11.9276015 Z M83.0880854,26.5094802 L84.2075066,28.4483745 C84.4840879,28.9274275 84.326566,29.5443162 83.8513211,29.8186989 L76.2478998,34.2085363 C75.7761808,34.4808833 75.1616004,34.3142662 74.8830713,33.8318397 L73.7636501,31.8929454 C73.4870688,31.4138924 73.6445907,30.7970037 74.1198356,30.522621 L81.7232569,26.1327836 C82.1949759,25.8604365 82.8095563,26.0270536 83.0880854,26.5094802 Z M89.0790634,46.8384335 L89.0790634,49.0772759 C89.0790634,49.6304386 88.634201,50.0859189 88.0854355,50.0859189 L79.3057608,50.0859189 C78.7610667,50.0859189 78.3121329,49.634334 78.3121329,49.0772759 L78.3121329,46.8384335 C78.3121329,46.2852708 78.7569953,45.8297905 79.3057608,45.8297905 L88.0854355,45.8297905 C88.6301297,45.8297905 89.0790634,46.2813753 89.0790634,46.8384335 Z M84.2075066,67.4673348 L83.0880854,69.4062292 C82.811504,69.8852822 82.1985018,70.0573085 81.7232569,69.7829257 L74.1198356,65.3930884 C73.6481166,65.1207413 73.485121,64.5051905 73.7636501,64.022764 L74.8830713,62.0838696 C75.1596527,61.6048166 75.7726549,61.4327903 76.2478998,61.7071731 L83.8513211,66.0970104 C84.3230401,66.3693575 84.4860357,66.9849083 84.2075066,67.4673348 Z M69.7787447,82.8686867 L67.8398504,83.9881079 C67.3607974,84.2646893 66.7439087,84.1071673 66.469526,83.6319224 L62.0796886,76.0285011 C61.8073415,75.5567821 61.9739586,74.9422017 62.4563851,74.6636726 L64.3952795,73.5442514 C64.8743325,73.2676701 65.4912211,73.425192 65.7656039,73.9004369 L70.1554413,81.5038582 C70.4277883,81.9755772 70.2611712,82.5901576 69.7787447,82.8686867 Z M49.6589529,88.9157093 L47.4201105,88.9157093 C46.8669478,88.9157093 46.4114675,88.470847 46.4114675,87.9220815 L46.4114675,79.1424068 C46.4114675,78.5977126 46.8630524,78.1487789 47.4201105,78.1487789 L49.6589529,78.1487789 C50.2121156,78.1487789 50.6675959,78.5936413 50.6675959,79.1424068 L50.6675959,87.9220815 C50.6675959,88.4667756 50.216011,88.9157093 49.6589529,88.9157093 Z M29.239213,83.9881079 L27.3003187,82.8686867 C26.8212657,82.5921054 26.6492394,81.9791031 26.9236221,81.5038582 L31.3134595,73.9004369 C31.5858065,73.4287179 32.2013574,73.2657224 32.6837839,73.5442514 L34.6226782,74.6636726 C35.1017312,74.940254 35.2737575,75.5532562 34.9993748,76.0285011 L30.6095374,83.6319224 C30.3371904,84.1036414 29.7216395,84.266637 29.239213,83.9881079 Z M13.990978,69.4062292 L12.8715568,67.4673348 C12.5949754,66.9882819 12.7524974,66.3713932 13.2277423,66.0970104 L20.8311636,61.7071731 C21.3028826,61.434826 21.917463,61.6014431 22.1959921,62.0838696 L23.3154133,64.022764 C23.5919946,64.5018169 23.4344727,65.1187056 22.9592278,65.3930884 L15.3558065,69.7829257 C14.8840875,70.0552728 14.2695071,69.8886557 13.990978,69.4062292 Z M8,49.0772759 L8,46.8384335 C8,46.2852708 8.44486235,45.8297905 8.99362786,45.8297905 L17.7733026,45.8297905 C18.3179967,45.8297905 18.7669304,46.2813753 18.7669304,46.8384335 L18.7669304,49.0772759 C18.7669304,49.6304386 18.3220681,50.0859189 17.7733026,50.0859189 L8.99362786,50.0859189 C8.44893373,50.0859189 8,49.634334 8,49.0772759 Z M12.8715568,28.4483745 L13.990978,26.5094802 C14.2675593,26.0304272 14.8805616,25.8584009 15.3558065,26.1327836 L22.9592278,30.522621 C23.4309468,30.794968 23.5939423,31.4105189 23.3154133,31.8929454 L22.1959921,33.8318397 C21.9194107,34.3108927 21.3064085,34.482919 20.8311636,34.2085363 L13.2277423,29.8186989 C12.7560233,29.5463519 12.5930277,28.930801 12.8715568,28.4483745 Z M27.3003187,13.0470226 L29.239213,11.9276015 C29.718266,11.6510201 30.3351547,11.808542 30.6095374,12.2837869 L34.9993748,19.8872083 C35.2717219,20.3589272 35.1051048,20.9735077 34.6226782,21.2520367 L32.6837839,22.3714579 C32.2047309,22.6480393 31.5878422,22.4905173 31.3134595,22.0152725 L26.9236221,14.4118511 C26.6512751,13.9401322 26.8178922,13.3255517 27.3003187,13.0470226 Z" id="Aura" fill="#F6D135"></path>
                    </g>
                    <g id="icon/weather/partly-cloudy-day" transform="translate(349.000000, 73.000000)">
                        <g id="Group" stroke-width="1" transform="translate(9.260417, 19.843750)">
                            <path d="M42.5946557,65.8869886 C55.1596346,65.8869886 65.3455614,55.5798592 65.3455614,42.8653693 C65.3455614,30.1508794 55.1596346,19.84375 42.5946557,19.84375 C30.0296768,19.84375 19.84375,30.1508794 19.84375,42.8653693 C19.84375,55.5798592 30.0296768,65.8869886 42.5946557,65.8869886 Z" id="Oval-16-Copy" stroke="#F8CE1C" stroke-width="4" fill="#F8CE1C"></path>
                            <path d="M42.0751199,0 L44.6056357,0 C45.1625445,0 45.6154684,0.448329734 45.6154684,1.00137249 L45.6154684,10.5094372 C45.6154684,11.0595723 45.1633509,11.5108097 44.6056357,11.5108097 L42.0751199,11.5108097 C41.5182112,11.5108097 41.0652872,11.0624799 41.0652872,10.5094372 L41.0652872,1.00137249 C41.0652872,0.45123738 41.5174047,0 42.0751199,0 Z M63.9148212,5.2337974 L66.1063122,6.4990553 C66.5886093,6.77750967 66.7566881,7.39223658 66.4801667,7.87118565 L61.7261344,16.1054112 C61.4510668,16.5818422 60.8339029,16.7465665 60.3509074,16.4677089 L58.1594164,15.202451 C57.6771193,14.9239966 57.5090405,14.3092697 57.7855619,13.8303206 L62.5395942,5.59609508 C62.8146618,5.1196641 63.4318257,4.95493981 63.9148212,5.2337974 Z M80.241617,20.7980557 L81.5068749,22.9895467 C81.7853293,23.4718438 81.6235263,24.0882523 81.1445773,24.3647737 L72.9103517,29.118806 C72.4339207,29.3938736 71.817079,29.227947 71.5382214,28.7449515 L70.2729635,26.5534606 C69.9945091,26.0711634 70.1563121,25.4547549 70.6352611,25.1782336 L78.8694867,20.4242012 C79.3459177,20.1491337 79.9627595,20.3150602 80.241617,20.7980557 Z M86.6807556,42.5223445 L86.6807556,45.0528603 C86.6807556,45.6097691 86.2324259,46.062693 85.6793831,46.062693 L76.1713184,46.062693 C75.6211833,46.062693 75.169946,45.6105755 75.169946,45.0528603 L75.169946,42.5223445 C75.169946,41.9654358 75.6182757,41.5125118 76.1713184,41.5125118 L85.6793831,41.5125118 C86.2295182,41.5125118 86.6807556,41.9646293 86.6807556,42.5223445 Z M81.5068749,64.5856581 L80.241617,66.7771491 C79.9631627,67.2594462 79.3484358,67.427525 78.8694867,67.1510036 L70.6352611,62.3969713 C70.1588302,62.1219037 69.9941059,61.5047398 70.2729635,61.0217443 L71.5382214,58.8302533 C71.8166757,58.3479562 72.4314026,58.1798774 72.9103517,58.4563988 L81.1445773,63.2104311 C81.6210082,63.4854987 81.7857325,64.1026626 81.5068749,64.5856581 Z M66.1063122,81.0761495 L63.9148212,82.3414074 C63.4325241,82.6198618 62.8161156,82.4580588 62.5395942,81.9791097 L57.7855619,73.7448842 C57.5104943,73.2684532 57.6764209,72.6516114 58.1594164,72.3727538 L60.3509074,71.1074959 C60.8332045,70.8290416 61.449613,70.9908445 61.7261344,71.4697936 L66.4801667,79.7040192 C66.7552342,80.1804502 66.5893077,80.7972919 66.1063122,81.0761495 Z M6.43913857,66.7771491 L5.17388067,64.5856581 C4.89542629,64.103361 5.05722927,63.4869525 5.53617835,63.2104311 L13.7704039,58.4563988 C14.2468349,58.1813312 14.8636767,58.3472578 15.1425343,58.8302533 L16.4077922,61.0217443 C16.6862465,61.5040414 16.5244435,62.1204499 16.0454945,62.3969713 L7.81126891,67.1510036 C7.33483794,67.4260712 6.71799616,67.2601446 6.43913857,66.7771491 Z M-1.17425055e-13,45.0528603 L-1.17889903e-13,42.5223445 C-1.17992205e-13,41.9654358 0.448329734,41.5125118 1.00137249,41.5125118 L10.5094372,41.5125118 C11.0595723,41.5125118 11.5108097,41.9646293 11.5108097,42.5223445 L11.5108097,45.0528603 C11.5108097,45.6097691 11.0624799,46.062693 10.5094372,46.062693 L1.00137249,46.062693 C0.45123738,46.062693 -1.17322604e-13,45.6105755 -1.17425055e-13,45.0528603 Z M5.17388067,22.9895467 L6.43913857,20.7980557 C6.71759294,20.3157586 7.33231984,20.1476798 7.81126891,20.4242012 L16.0454945,25.1782336 C16.5219255,25.4533011 16.6866497,26.070465 16.4077922,26.5534606 L15.1425343,28.7449515 C14.8640799,29.2272486 14.249353,29.3953274 13.7704039,29.118806 L5.53617835,24.3647737 C5.05974737,24.0897061 4.89502308,23.4725422 5.17388067,22.9895467 Z M20.5744434,6.4990553 L22.7659344,5.2337974 C23.2482315,4.95534303 23.86464,5.11714601 24.1411614,5.59609508 L28.8951937,13.8303206 C29.1702613,14.3067516 29.0043347,14.9235934 28.5213392,15.202451 L26.3298483,16.4677089 C25.8475511,16.7461633 25.2311426,16.5843603 24.9546213,16.1054112 L20.2005889,7.87118565 C19.9255214,7.39475467 20.0914479,6.77791289 20.5744434,6.4990553 Z" id="Aura-Copy" fill="#F6D135"></path>
                        </g>
                        <path d="M104.79895,101.938618 L39.0765349,101.938618 C31.3770675,101.938618 25.1354167,95.7106494 25.1354167,88.0280603 C25.1354167,80.3454713 31.3770675,74.117503 39.0765349,74.117503 C39.3025991,74.117503 39.5274065,74.1228719 39.7508361,74.133489 C41.3867211,69.4941473 45.8171795,66.1686131 51.0260649,66.1686131 C56.9149286,66.1686131 61.8088651,70.4190622 62.7945949,76.0130671 C62.9133841,75.3994573 62.9755948,74.7657293 62.9755948,74.117503 C62.9755948,69.5723074 59.9170316,65.7399119 55.7415381,64.5576932 C59.9905476,56.0867456 68.7687424,50.2708333 78.9083014,50.2708333 C91.8539041,50.2708333 102.580387,59.7511808 104.494945,72.1335225 C96.935855,72.2948867 90.8578314,78.4596186 90.8578314,86.0408378 L90.9990128,86.0408378 C91.9653904,79.2995944 97.775669,74.117503 104.79895,74.117503 C112.498417,74.117503 118.740068,80.3454713 118.740068,88.0280603 C118.740068,95.7106494 112.498417,101.938618 104.79895,101.938618 Z" id="Cloud" fill="#BAC1E1"></path>
                    </g>
                    <g id="icon/weather/rain" transform="translate(557.000000, 73.000000)">
                        <path d="M36.0870734,72.7902339 C36.8346799,75.5803389 35.2060546,77.7041822 33.1555658,78.253609 C31.105077,78.8030359 28.5392739,77.4292832 27.8851182,74.9879413 C27.2309626,72.5465993 29.7636431,66.6209193 29.7636431,66.6209193 C29.8556179,66.3974536 30.0870173,66.3283838 30.2795286,66.4689997 C30.2795286,66.4689997 35.3394669,70.0001289 36.0870734,72.7902339 Z M54.8746017,82.589368 C55.9770373,86.7037131 53.5754336,89.8355752 50.5517415,90.6457712 C47.5280494,91.4559671 43.7444644,89.4302037 42.7798333,85.8301516 C41.8152022,82.2300995 45.6313554,73.2912375 45.6313554,73.2912375 C45.722021,73.0725733 45.94835,73.0040618 46.1404197,73.1431 C46.1404197,73.1431 53.7721661,78.475023 54.8746017,82.589368 Z M70.9713487,74.8019081 C71.9327241,78.3898095 69.8384134,81.1209399 67.2016124,81.8274686 C64.5648114,82.5339974 61.2653482,80.767437 60.4241447,77.6280231 C59.5829413,74.4886092 62.8885207,66.7482185 62.8885207,66.7482185 C62.9798929,66.5273147 63.2130174,66.4616093 63.4109342,66.6053895 C63.4109342,66.6053895 70.0099733,71.2140067 70.9713487,74.8019081 Z" id="Drops_2" fill="#3490DC"></path>
                        <path d="M19.1040153,61.6897836 C12.4191519,61.6897836 7,56.3029346 7,49.6579188 C7,43.012903 12.4191519,37.626054 19.1040153,37.626054 C19.3002896,37.626054 19.4954729,37.6306978 19.6894598,37.639881 C21.1097746,33.6271063 24.9564055,30.7507027 29.4788855,30.7507027 C34.5917391,30.7507027 38.8407729,34.4271067 39.6966072,39.2656124 C39.7997428,38.7348738 39.8537557,38.186734 39.8537557,37.626054 C39.8537557,33.6947105 37.1982374,30.3798998 33.5729732,29.3573458 C37.2620657,22.0304433 44.8835063,17 53.6869161,17 C64.9266006,17 74.2395919,25.1999777 75.901857,35.9100202 C69.338873,36.0495914 64.0617863,41.3817445 64.0617863,47.939081 C65.0233958,42.1082772 70.0680198,37.626054 76.1658016,37.626054 C82.8506649,37.626054 88.2698168,43.012903 88.2698168,49.6579188 C88.2698168,56.3029346 82.8506649,61.6897836 76.1658016,61.6897836 L19.1040153,61.6897836 Z" id="Cloud" fill="#7A83A4"></path>
                    </g>
                    <g id="Group">
                        <ellipse id="Oval-5" fill="#BAC1E1" cx="37.5" cy="105" rx="37.5" ry="6"></ellipse>
                        <path d="M37,86 C60.3333333,64.8292434 72,47.8107543 72,34.9445326 C72,15.6452002 56.3299662,0 37,0 C17.6700338,0 2,15.6452002 2,34.9445326 C2,47.8107543 13.6666667,64.8292434 37,86 Z" id="Oval-3-Copy" fill="#FF8E9C"></path>
                        <circle id="Oval-4-Copy" fill="#FFF1F3" cx="37" cy="35" r="14"></circle>
                    </g>
                    <g id="Group-Copy" transform="translate(749.000000, 0.000000)">
                        <ellipse id="Oval-5" fill="#BAC1E1" cx="37.5" cy="105" rx="37.5" ry="6"></ellipse>
                        <path d="M37,86 C60.3333333,64.8292434 72,47.8107543 72,34.9445326 C72,15.6452002 56.3299662,0 37,0 C17.6700338,0 2,15.6452002 2,34.9445326 C2,47.8107543 13.6666667,64.8292434 37,86 Z" id="Oval-3-Copy" fill="#FF8E9C"></path>
                        <circle id="Oval-4-Copy" fill="#FFF1F3" cx="37" cy="35" r="14"></circle>
                    </g>
                </g>
            </g>
        </g>
    </g>
</svg>