<?xml version="1.0" encoding="UTF-8"?>
<svg width="110px" height="23px" viewBox="0 0 110 23" version="1.1" xmlns="http://www.w3.org/2000/svg" xmlns:xlink="http://www.w3.org/1999/xlink">
    <!-- Generator: Sketch 50.2 (55047) - http://www.bohemiancoding.com/sketch -->
    <title>Logo</title>
    <desc>Created with Sketch.</desc>
    <defs>
        <linearGradient x1="50%" y1="3.39369581%" x2="50%" y2="96.1840679%" id="linearGradient-1">
            <stop stop-color="#75A0FF" stop-opacity="0" offset="0%"></stop>
            <stop stop-color="#4167FF" offset="100%"></stop>
        </linearGradient>
    </defs>
    <g id="Symbols" stroke="none" stroke-width="1" fill="none" fill-rule="evenodd">
        <g id="Nav/desktop" transform="translate(-2.000000, -9.000000)">
            <g id="logos/main-logo" transform="translate(0.000000, 8.000000)">
                <path d="M6.56431535,23.8045977 L6.56431535,10.6149425 L2,10.6149425 L2,7 L15.3326054,7 L15.3326054,10.6149425 L10.7442673,10.6149425 L10.7442673,23.8045977 L6.56431535,23.8045977 Z M22.5394191,24 C20.7136838,24 19.4004553,23.8168122 18.5996943,23.450431 C17.7989332,23.0840499 17.2904575,22.4815655 17.074252,21.6429598 C16.8580465,20.804354 16.7499454,19.4487642 16.7499454,17.5761494 C16.7499454,15.6872511 16.8580465,14.3275904 17.074252,13.4971264 C17.2904575,12.6666625 17.7989332,12.068249 18.5996943,11.7018678 C19.4004553,11.3354867 20.7136838,11.1522989 22.5394191,11.1522989 C24.3651544,11.1522989 25.6783828,11.3354867 26.4791439,11.7018678 C27.279905,12.068249 27.7883807,12.6666625 28.0045862,13.4971264 C28.2207916,14.3275904 28.3288928,15.6872511 28.3288928,17.5761494 C28.3288928,19.4487642 28.2207916,20.804354 28.0045862,21.6429598 C27.7883807,22.4815655 27.279905,23.0840499 26.4791439,23.450431 C25.6783828,23.8168122 24.3651544,24 22.5394191,24 Z M22.5394191,20.9468391 C23.2120584,20.9468391 23.6724891,20.8776348 23.920725,20.7392241 C24.168961,20.6008135 24.3211033,20.3280672 24.3771566,19.920977 C24.4332099,19.5138869 24.4612361,18.7322855 24.4612361,17.5761494 C24.4612361,16.4037298 24.4332099,15.6139867 24.3771566,15.2068966 C24.3211033,14.7998064 24.168961,14.5311309 23.920725,14.4008621 C23.6724891,14.2705932 23.2120584,14.2054598 22.5394191,14.2054598 C21.8667798,14.2054598 21.4063491,14.2705932 21.1581131,14.4008621 C20.9098772,14.5311309 20.7577349,14.7998064 20.7016816,15.2068966 C20.6456283,15.6139867 20.6176021,16.4037298 20.6176021,17.5761494 C20.6176021,18.7322855 20.6456283,19.5138869 20.7016816,19.920977 C20.7577349,20.3280672 20.9098772,20.6008135 21.1581131,20.7392241 C21.4063491,20.8776348 21.8667798,20.9468391 22.5394191,20.9468391 Z M30.8512776,11.3477011 L34.5267526,11.3477011 L34.6228434,13.4727011 L34.8390478,13.4727011 C35.143337,12.60967 35.599764,12.0071856 36.2083424,11.6652299 C36.8169209,11.3232742 37.6336849,11.1522989 38.6586591,11.1522989 L38.6586591,14.8649425 C37.6176697,14.8649425 36.8209244,14.9911386 36.2683992,15.2435345 C35.7158741,15.4959304 35.3195033,15.9315103 35.079275,16.5502874 C34.8390466,17.1690644 34.7189343,18.0483659 34.7189343,19.1882184 L34.7189343,23.8045977 L30.8512776,23.8045977 L30.8512776,11.3477011 Z M40.6525442,11.3477011 L44.3280192,11.3477011 L44.4241101,13.4727011 L44.6403145,13.4727011 C44.9446037,12.60967 45.4010307,12.0071856 46.0096091,11.6652299 C46.6181875,11.3232742 47.4349516,11.1522989 48.4599257,11.1522989 L48.4599257,14.8649425 C47.4189363,14.8649425 46.622191,14.9911386 46.0696659,15.2435345 C45.5171407,15.4959304 45.1207699,15.9315103 44.8805416,16.5502874 C44.6403133,17.1690644 44.5202009,18.0483659 44.5202009,19.1882184 L44.5202009,23.8045977 L40.6525442,23.8045977 L40.6525442,11.3477011 Z M61.215986,18.5531609 L53.8890587,18.5531609 C53.8890587,19.334774 53.9491149,19.8802667 54.0692291,20.1896552 C54.1893433,20.4990437 54.4535904,20.7025857 54.8619786,20.8002874 C55.2703668,20.897989 56.0030522,20.9468391 57.0600568,20.9468391 C58.1971375,20.9468391 59.4222836,20.8817056 60.7355318,20.7514368 L60.7355318,23.5603448 C60.2230447,23.6906137 59.5384042,23.7964555 58.6815899,23.8778736 C57.8247755,23.9592916 56.9799852,24 56.1471937,24 C54.2734128,24 52.9081356,23.7923871 52.0513212,23.3771552 C51.1945069,22.9619232 50.6459938,22.3309429 50.4057655,21.4841954 C50.1655371,20.6374479 50.0454248,19.3429206 50.0454248,17.6005747 C50.0454248,15.890796 50.1655371,14.6044104 50.4057655,13.7413793 C50.6459938,12.8783482 51.1704844,12.2310845 51.9792531,11.799569 C52.7880218,11.3680534 54.0572091,11.1522989 55.786853,11.1522989 C57.516497,11.1522989 58.7616618,11.3599117 59.5223848,11.7751437 C60.2831078,12.1903756 60.7555498,12.8091434 60.9397248,13.6314655 C61.1238999,14.4537876 61.215986,15.7768108 61.215986,17.6005747 L61.215986,18.5531609 Z M55.7628303,14.0100575 C55.1862823,14.0100575 54.7698928,14.0670492 54.5136493,14.1810345 C54.2574057,14.2950197 54.0892484,14.518916 54.0091723,14.8527299 C53.9290962,15.1865438 53.8890587,15.744249 53.8890587,16.5258621 L57.5885565,16.5258621 C57.5885565,15.744249 57.5405115,15.182473 57.4444202,14.8405172 C57.3483288,14.4985615 57.1801715,14.2746653 56.9399432,14.1688218 C56.6997149,14.0629784 56.3073478,14.0100575 55.7628303,14.0100575 Z M71.1373662,17.2341954 C71.1373662,16.3223134 71.1013325,15.6872623 71.029264,15.329023 C70.9571955,14.9707836 70.8170644,14.7428166 70.6088666,14.6451149 C70.4006687,14.5474133 70.0163091,14.4985632 69.4557764,14.4985632 C68.9112588,14.4985632 68.514888,14.5759092 68.2666521,14.7306034 C68.0184162,14.8852977 67.8542626,15.1499023 67.7741865,15.5244253 C67.6941104,15.8989482 67.6540729,16.4932909 67.6540729,17.3074713 L67.6540729,23.8045977 L63.7864162,23.8045977 L63.7864162,11.3477011 L67.4618912,11.3477011 L67.5579821,12.8376437 L67.7741865,12.8376437 C68.3987801,11.7140748 69.5758813,11.1522989 71.3055252,11.1522989 C72.3465146,11.1522989 73.1352525,11.3354867 73.6717624,11.7018678 C74.2082723,12.068249 74.5646057,12.5893165 74.7407731,13.2650862 C74.9169405,13.9408559 75.0050229,14.856795 75.0050229,16.012931 L75.0050229,23.8045977 L71.1373662,23.8045977 L71.1373662,17.2341954 Z M79.1609522,23.8045977 L79.1609522,14.4008621 L76.9508626,14.4008621 L76.9508626,11.3477011 L79.1609522,11.3477011 L79.1609522,7.73275862 L83.0766543,7.73275862 L83.0766543,11.3477011 L85.7191527,11.3477011 L85.7191527,14.4008621 L83.0766543,14.4008621 L83.0766543,23.8045977 L79.1609522,23.8045977 Z M87.6649924,10.4073276 L87.6649924,7.69204981 L91.6287399,7.69204981 L91.6287399,10.4073276 L87.6649924,10.4073276 Z M87.6890151,23.8045977 L87.6890151,11.3477011 L91.6047172,11.3477011 L91.6047172,23.8045977 L87.6890151,23.8045977 Z M97.5143044,24 C96.3131628,24 95.4243313,23.7068995 94.8477834,23.1206897 C94.2712354,22.5344798 93.9829657,21.5737615 93.9829657,20.2385057 C93.9829657,19.2614894 94.0950706,18.504313 94.3192837,17.966954 C94.5434968,17.429595 94.9318601,17.0387943 95.4843852,16.7945402 C96.0369104,16.5502861 96.8336557,16.4281609 97.8746451,16.4281609 C98.659391,16.4281609 99.7884472,16.4607276 101.261848,16.5258621 L101.261848,16.0862069 C101.261848,15.4674299 101.193784,15.0318499 101.057655,14.779454 C100.921525,14.5270581 100.665285,14.3682953 100.288928,14.3031609 C99.91257,14.2380265 99.2439445,14.2054598 98.2830312,14.2054598 C97.0818896,14.2054598 95.8887735,14.2705932 94.7036471,14.4008621 L94.7036471,11.5675287 C96.2090779,11.2907074 97.8105761,11.1522989 99.5081896,11.1522989 C101.189788,11.1522989 102.426945,11.3314158 103.219699,11.6896552 C104.012452,12.0478945 104.528935,12.5771038 104.769164,13.2772989 C105.009392,13.9774939 105.129504,14.9870624 105.129504,16.3060345 L105.129504,23.8045977 L101.430007,23.8045977 L101.333916,22.3635057 L101.141734,22.3635057 C100.725338,23.0311336 100.220866,23.4707844 99.6283031,23.6824713 C99.0357399,23.8941581 98.3310807,24 97.5143044,24 Z M99.3400306,21.1422414 C99.7884568,21.1422414 100.140786,21.0933913 100.39703,20.9956897 C100.653273,20.897988 100.853461,20.7270127 100.997598,20.4827586 C101.173765,20.1733701 101.261848,19.6685859 101.261848,18.9683908 L101.261848,18.4798851 L99.0757807,18.4798851 C98.6433698,18.4798851 98.3310776,18.5124518 98.138895,18.5775862 C97.9467123,18.6427206 97.8145887,18.7689167 97.7425202,18.9561782 C97.6704517,19.1434396 97.634418,19.4487527 97.634418,19.8721264 C97.634418,20.2303658 97.6744554,20.4990412 97.7545316,20.6781609 C97.8346077,20.8572806 97.9907537,20.9794058 98.2229744,21.0445402 C98.4551952,21.1096747 98.8275435,21.1422414 99.3400306,21.1422414 Z M108.084298,23.8045977 L108.084298,7.18318966 L112,7.18318966 L112,23.8045977 L108.084298,23.8045977 Z" id="Torrential" fill="#000438"></path>
                <g id="logos/rain" transform="translate(2.000000, 1.000000)" fill="url(#linearGradient-1)">
                    <path d="M0,0 L1,0 L1,2.5 C1,2.77614237 0.776142375,3 0.5,3 L0.5,3 C0.223857625,3 -5.3036679e-16,2.77614237 -1.05471187e-15,2.5 L0,0 Z" id="Rectangle-23-Copy-3"></path>
                    <path d="M2,2 L3,2 L3,4.5 C3,4.77614237 2.77614237,5 2.5,5 L2.5,5 C2.22385763,5 2,4.77614237 2,4.5 L2,2 Z" id="Rectangle-23-Copy-4"></path>
                    <path d="M4,0 L5,0 L5,2.5 C5,2.77614237 4.77614237,3 4.5,3 L4.5,3 C4.22385763,3 4,2.77614237 4,2.5 L4,0 Z" id="Rectangle-23-Copy-5"></path>
                    <path d="M10,2 L11,2 L11,4.5 C11,4.77614237 10.7761424,5 10.5,5 L10.5,5 C10.2238576,5 10,4.77614237 10,4.5 L10,2 Z" id="Rectangle-23-Copy-6"></path>
                    <path d="M8,0 L9,0 L9,2.5 C9,2.77614237 8.77614237,3 8.5,3 L8.5,3 C8.22385763,3 8,2.77614237 8,2.5 L8,0 Z" id="Rectangle-23-Copy-7"></path>
                    <path d="M12,0 L13,0 L13,2.5 C13,2.77614237 12.7761424,3 12.5,3 L12.5,3 C12.2238576,3 12,2.77614237 12,2.5 L12,0 Z" id="Rectangle-23-Copy-9"></path>
                    <path d="M6,2 L7,2 L7,4.5 C7,4.77614237 6.77614237,5 6.5,5 L6.5,5 C6.22385763,5 6,4.77614237 6,4.5 L6,2 Z" id="Rectangle-23-Copy-8"></path>
                </g>
            </g>
        </g>
    </g>
</svg>