<?xml version="1.0" encoding="UTF-8"?>
<svg width="110px" height="23px" viewBox="0 0 110 23" version="1.1" xmlns="http://www.w3.org/2000/svg" xmlns:xlink="http://www.w3.org/1999/xlink">
    <!-- Generator: Sketch 50.2 (55047) - http://www.bohemiancoding.com/sketch -->
    <title>Logo-white</title>
    <desc>Created with Sketch.</desc>
    <defs>
        <linearGradient x1="50%" y1="3.39369581%" x2="50%" y2="96.1840679%" id="linearGradient-1">
            <stop stop-color="#75A0FF" stop-opacity="0" offset="0%"></stop>
            <stop stop-color="#4167FF" offset="100%"></stop>
        </linearGradient>
    </defs>
    <g id="Symbols" stroke="none" stroke-width="1" fill="none" fill-rule="evenodd">
        <g id="Footer/Desktop" transform="translate(-64.000000, -65.000000)">
            <g id="logos/main-logo-white" transform="translate(62.000000, 64.000000)">
                <g id="logos/main-logo" transform="translate(2.000000, 1.000000)">
                    <path d="M4.56431535,22.8045977 L4.56431535,9.61494253 L0,9.61494253 L0,6 L13.3326054,6 L13.3326054,9.61494253 L8.74426731,9.61494253 L8.74426731,22.8045977 L4.56431535,22.8045977 Z M20.5394191,23 C18.7136838,23 17.4004553,22.8168122 16.5996943,22.450431 C15.7989332,22.0840499 15.2904575,21.4815655 15.074252,20.6429598 C14.8580465,19.804354 14.7499454,18.4487642 14.7499454,16.5761494 C14.7499454,14.6872511 14.8580465,13.3275904 15.074252,12.4971264 C15.2904575,11.6666625 15.7989332,11.068249 16.5996943,10.7018678 C17.4004553,10.3354867 18.7136838,10.1522989 20.5394191,10.1522989 C22.3651544,10.1522989 23.6783828,10.3354867 24.4791439,10.7018678 C25.279905,11.068249 25.7883807,11.6666625 26.0045862,12.4971264 C26.2207916,13.3275904 26.3288928,14.6872511 26.3288928,16.5761494 C26.3288928,18.4487642 26.2207916,19.804354 26.0045862,20.6429598 C25.7883807,21.4815655 25.279905,22.0840499 24.4791439,22.450431 C23.6783828,22.8168122 22.3651544,23 20.5394191,23 Z M20.5394191,19.9468391 C21.2120584,19.9468391 21.6724891,19.8776348 21.920725,19.7392241 C22.168961,19.6008135 22.3211033,19.3280672 22.3771566,18.920977 C22.4332099,18.5138869 22.4612361,17.7322855 22.4612361,16.5761494 C22.4612361,15.4037298 22.4332099,14.6139867 22.3771566,14.2068966 C22.3211033,13.7998064 22.168961,13.5311309 21.920725,13.4008621 C21.6724891,13.2705932 21.2120584,13.2054598 20.5394191,13.2054598 C19.8667798,13.2054598 19.4063491,13.2705932 19.1581131,13.4008621 C18.9098772,13.5311309 18.7577349,13.7998064 18.7016816,14.2068966 C18.6456283,14.6139867 18.6176021,15.4037298 18.6176021,16.5761494 C18.6176021,17.7322855 18.6456283,18.5138869 18.7016816,18.920977 C18.7577349,19.3280672 18.9098772,19.6008135 19.1581131,19.7392241 C19.4063491,19.8776348 19.8667798,19.9468391 20.5394191,19.9468391 Z M28.8512776,10.3477011 L32.5267526,10.3477011 L32.6228434,12.4727011 L32.8390478,12.4727011 C33.143337,11.60967 33.599764,11.0071856 34.2083424,10.6652299 C34.8169209,10.3232742 35.6336849,10.1522989 36.6586591,10.1522989 L36.6586591,13.8649425 C35.6176697,13.8649425 34.8209244,13.9911386 34.2683992,14.2435345 C33.7158741,14.4959304 33.3195033,14.9315103 33.079275,15.5502874 C32.8390466,16.1690644 32.7189343,17.0483659 32.7189343,18.1882184 L32.7189343,22.8045977 L28.8512776,22.8045977 L28.8512776,10.3477011 Z M38.6525442,10.3477011 L42.3280192,10.3477011 L42.4241101,12.4727011 L42.6403145,12.4727011 C42.9446037,11.60967 43.4010307,11.0071856 44.0096091,10.6652299 C44.6181875,10.3232742 45.4349516,10.1522989 46.4599257,10.1522989 L46.4599257,13.8649425 C45.4189363,13.8649425 44.622191,13.9911386 44.0696659,14.2435345 C43.5171407,14.4959304 43.1207699,14.9315103 42.8805416,15.5502874 C42.6403133,16.1690644 42.5202009,17.0483659 42.5202009,18.1882184 L42.5202009,22.8045977 L38.6525442,22.8045977 L38.6525442,10.3477011 Z M59.215986,17.5531609 L51.8890587,17.5531609 C51.8890587,18.334774 51.9491149,18.8802667 52.0692291,19.1896552 C52.1893433,19.4990437 52.4535904,19.7025857 52.8619786,19.8002874 C53.2703668,19.897989 54.0030522,19.9468391 55.0600568,19.9468391 C56.1971375,19.9468391 57.4222836,19.8817056 58.7355318,19.7514368 L58.7355318,22.5603448 C58.2230447,22.6906137 57.5384042,22.7964555 56.6815899,22.8778736 C55.8247755,22.9592916 54.9799852,23 54.1471937,23 C52.2734128,23 50.9081356,22.7923871 50.0513212,22.3771552 C49.1945069,21.9619232 48.6459938,21.3309429 48.4057655,20.4841954 C48.1655371,19.6374479 48.0454248,18.3429206 48.0454248,16.6005747 C48.0454248,14.890796 48.1655371,13.6044104 48.4057655,12.7413793 C48.6459938,11.8783482 49.1704844,11.2310845 49.9792531,10.799569 C50.7880218,10.3680534 52.0572091,10.1522989 53.786853,10.1522989 C55.516497,10.1522989 56.7616618,10.3599117 57.5223848,10.7751437 C58.2831078,11.1903756 58.7555498,11.8091434 58.9397248,12.6314655 C59.1238999,13.4537876 59.215986,14.7768108 59.215986,16.6005747 L59.215986,17.5531609 Z M53.7628303,13.0100575 C53.1862823,13.0100575 52.7698928,13.0670492 52.5136493,13.1810345 C52.2574057,13.2950197 52.0892484,13.518916 52.0091723,13.8527299 C51.9290962,14.1865438 51.8890587,14.744249 51.8890587,15.5258621 L55.5885565,15.5258621 C55.5885565,14.744249 55.5405115,14.182473 55.4444202,13.8405172 C55.3483288,13.4985615 55.1801715,13.2746653 54.9399432,13.1688218 C54.6997149,13.0629784 54.3073478,13.0100575 53.7628303,13.0100575 Z M69.1373662,16.2341954 C69.1373662,15.3223134 69.1013325,14.6872623 69.029264,14.329023 C68.9571955,13.9707836 68.8170644,13.7428166 68.6088666,13.6451149 C68.4006687,13.5474133 68.0163091,13.4985632 67.4557764,13.4985632 C66.9112588,13.4985632 66.514888,13.5759092 66.2666521,13.7306034 C66.0184162,13.8852977 65.8542626,14.1499023 65.7741865,14.5244253 C65.6941104,14.8989482 65.6540729,15.4932909 65.6540729,16.3074713 L65.6540729,22.8045977 L61.7864162,22.8045977 L61.7864162,10.3477011 L65.4618912,10.3477011 L65.5579821,11.8376437 L65.7741865,11.8376437 C66.3987801,10.7140748 67.5758813,10.1522989 69.3055252,10.1522989 C70.3465146,10.1522989 71.1352525,10.3354867 71.6717624,10.7018678 C72.2082723,11.068249 72.5646057,11.5893165 72.7407731,12.2650862 C72.9169405,12.9408559 73.0050229,13.856795 73.0050229,15.012931 L73.0050229,22.8045977 L69.1373662,22.8045977 L69.1373662,16.2341954 Z M77.1609522,22.8045977 L77.1609522,13.4008621 L74.9508626,13.4008621 L74.9508626,10.3477011 L77.1609522,10.3477011 L77.1609522,6.73275862 L81.0766543,6.73275862 L81.0766543,10.3477011 L83.7191527,10.3477011 L83.7191527,13.4008621 L81.0766543,13.4008621 L81.0766543,22.8045977 L77.1609522,22.8045977 Z M85.6649924,9.40732759 L85.6649924,6.69204981 L89.6287399,6.69204981 L89.6287399,9.40732759 L85.6649924,9.40732759 Z M85.6890151,22.8045977 L85.6890151,10.3477011 L89.6047172,10.3477011 L89.6047172,22.8045977 L85.6890151,22.8045977 Z M95.5143044,23 C94.3131628,23 93.4243313,22.7068995 92.8477834,22.1206897 C92.2712354,21.5344798 91.9829657,20.5737615 91.9829657,19.2385057 C91.9829657,18.2614894 92.0950706,17.504313 92.3192837,16.966954 C92.5434968,16.429595 92.9318601,16.0387943 93.4843852,15.7945402 C94.0369104,15.5502861 94.8336557,15.4281609 95.8746451,15.4281609 C96.659391,15.4281609 97.7884472,15.4607276 99.2618476,15.5258621 L99.2618476,15.0862069 C99.2618476,14.4674299 99.1937839,14.0318499 99.0576545,13.779454 C98.9215251,13.5270581 98.6652854,13.3682953 98.2889277,13.3031609 C97.91257,13.2380265 97.2439445,13.2054598 96.2830312,13.2054598 C95.0818896,13.2054598 93.8887735,13.2705932 92.7036471,13.4008621 L92.7036471,10.5675287 C94.2090779,10.2907074 95.8105761,10.1522989 97.5081896,10.1522989 C99.1897878,10.1522989 100.426945,10.3314158 101.219699,10.6896552 C102.012452,11.0478945 102.528935,11.5771038 102.769164,12.2772989 C103.009392,12.9774939 103.129504,13.9870624 103.129504,15.3060345 L103.129504,22.8045977 L99.4300066,22.8045977 L99.3339157,21.3635057 L99.141734,21.3635057 C98.7253382,22.0311336 98.2208663,22.4707844 97.6283031,22.6824713 C97.0357399,22.8941581 96.3310807,23 95.5143044,23 Z M97.3400306,20.1422414 C97.7884568,20.1422414 98.1407864,20.0933913 98.3970299,19.9956897 C98.6532735,19.897988 98.8534607,19.7270127 98.9975977,19.4827586 C99.1737652,19.1733701 99.2618476,18.6685859 99.2618476,17.9683908 L99.2618476,17.4798851 L97.0757807,17.4798851 C96.6433698,17.4798851 96.3310776,17.5124518 96.138895,17.5775862 C95.9467123,17.6427206 95.8145887,17.7689167 95.7425202,17.9561782 C95.6704517,18.1434396 95.634418,18.4487527 95.634418,18.8721264 C95.634418,19.2303658 95.6744554,19.4990412 95.7545316,19.6781609 C95.8346077,19.8572806 95.9907537,19.9794058 96.2229744,20.0445402 C96.4551952,20.1096747 96.8275435,20.1422414 97.3400306,20.1422414 Z M106.084298,22.8045977 L106.084298,6.18318966 L110,6.18318966 L110,22.8045977 L106.084298,22.8045977 Z" id="Torrential" fill="#F0F3FE"></path>
                    <path d="M0,0 L1,0 L1,2.5 C1,2.77614237 0.776142375,3 0.5,3 L0.5,3 C0.223857625,3 -5.3036679e-16,2.77614237 -1.05471187e-15,2.5 L0,0 Z" id="Rectangle-23-Copy-3" fill="url(#linearGradient-1)"></path>
                    <path d="M2,2 L3,2 L3,4.5 C3,4.77614237 2.77614237,5 2.5,5 L2.5,5 C2.22385763,5 2,4.77614237 2,4.5 L2,2 Z" id="Rectangle-23-Copy-4" fill="url(#linearGradient-1)"></path>
                    <path d="M4,0 L5,0 L5,2.5 C5,2.77614237 4.77614237,3 4.5,3 L4.5,3 C4.22385763,3 4,2.77614237 4,2.5 L4,0 Z" id="Rectangle-23-Copy-5" fill="url(#linearGradient-1)"></path>
                    <path d="M10,2 L11,2 L11,4.5 C11,4.77614237 10.7761424,5 10.5,5 L10.5,5 C10.2238576,5 10,4.77614237 10,4.5 L10,2 Z" id="Rectangle-23-Copy-6" fill="url(#linearGradient-1)"></path>
                    <path d="M8,0 L9,0 L9,2.5 C9,2.77614237 8.77614237,3 8.5,3 L8.5,3 C8.22385763,3 8,2.77614237 8,2.5 L8,0 Z" id="Rectangle-23-Copy-7" fill="url(#linearGradient-1)"></path>
                    <path d="M12,0 L13,0 L13,2.5 C13,2.77614237 12.7761424,3 12.5,3 L12.5,3 C12.2238576,3 12,2.77614237 12,2.5 L12,0 Z" id="Rectangle-23-Copy-9" fill="url(#linearGradient-1)"></path>
                    <path d="M6,2 L7,2 L7,4.5 C7,4.77614237 6.77614237,5 6.5,5 L6.5,5 C6.22385763,5 6,4.77614237 6,4.5 L6,2 Z" id="Rectangle-23-Copy-8" fill="url(#linearGradient-1)"></path>
                </g>
            </g>
        </g>
    </g>
</svg>